<svg width="1376.0000000000002" height="562" xmlns="http://www.w3.org/2000/svg" xmlns:undefined="http://www.inkscape.org/namespaces/inkscape" xmlns:xlink="http://www.w3.org/1999/xlink">
 <defs>
  <linearGradient id="imagebot_277">
   <stop stop-color="#ff8080" id="imagebot_416" offset="0"/>
   <stop stop-color="#ff8080" stop-opacity="0" id="imagebot_415" offset="1"/>
  </linearGradient>
  <linearGradient id="imagebot_294">
   <stop stop-color="#1a1a1a" id="imagebot_414" offset="0"/>
   <stop stop-color="#1a1a1a" stop-opacity="0" id="imagebot_413" offset="1"/>
  </linearGradient>
  <linearGradient id="imagebot_295">
   <stop stop-color="#ffffff" id="imagebot_412" offset="0"/>
   <stop stop-color="#ffffff" stop-opacity="0" id="imagebot_411" offset="1"/>
  </linearGradient>
  <linearGradient id="imagebot_311">
   <stop stop-color="#ffffff" id="imagebot_410" offset="0"/>
   <stop stop-color="#ffffff" stop-opacity="0" id="imagebot_409" offset="1"/>
  </linearGradient>
  <linearGradient id="imagebot_312">
   <stop stop-color="#d40000" id="imagebot_408" offset="0"/>
   <stop stop-color="#d40000" stop-opacity="0" id="imagebot_407" offset="1"/>
  </linearGradient>
  <linearGradient id="imagebot_313">
   <stop stop-color="#2b0000" id="imagebot_406" offset="0"/>
   <stop stop-color="#2b0000" stop-opacity="0" id="imagebot_405" offset="1"/>
  </linearGradient>
  <linearGradient id="imagebot_314">
   <stop stop-color="#aa4400" id="imagebot_404" offset="0"/>
   <stop stop-color="#aa4400" stop-opacity="0" id="imagebot_403" offset="1"/>
  </linearGradient>
  <linearGradient id="imagebot_315">
   <stop stop-color="#2b0000" id="imagebot_402" offset="0"/>
   <stop stop-color="#2b0000" stop-opacity="0" id="imagebot_401" offset="1"/>
  </linearGradient>
  <linearGradient id="imagebot_323">
   <stop stop-color="#cccccc" id="imagebot_400" offset="0"/>
   <stop stop-color="#cccccc" stop-opacity="0" id="imagebot_399" offset="1"/>
  </linearGradient>
  <linearGradient id="imagebot_324">
   <stop stop-color="#696969" id="imagebot_398" offset="0"/>
   <stop stop-color="#696969" stop-opacity="0" id="imagebot_397" offset="1"/>
  </linearGradient>
  <linearGradient id="imagebot_325">
   <stop stop-color="#696969" id="imagebot_396" offset="0"/>
   <stop stop-color="#696969" stop-opacity="0" id="imagebot_395" offset="1"/>
  </linearGradient>
  <linearGradient id="imagebot_326">
   <stop stop-color="#1a1a1a" id="imagebot_394" offset="0"/>
   <stop stop-color="#1a1a1a" stop-opacity="0" id="imagebot_393" offset="1"/>
  </linearGradient>
  <linearGradient id="imagebot_330">
   <stop stop-color="#ffffff" id="imagebot_392" offset="0"/>
   <stop stop-color="#ffffff" stop-opacity="0" id="imagebot_391" offset="1"/>
  </linearGradient>
  <linearGradient id="imagebot_331">
   <stop stop-color="#ffffff" id="imagebot_390" offset="0"/>
   <stop stop-color="#ffffff" stop-opacity="0" id="imagebot_389" offset="1"/>
  </linearGradient>
  <linearGradient id="imagebot_332">
   <stop stop-color="#ffffff" id="imagebot_388" offset="0"/>
   <stop stop-color="#ffffff" stop-opacity="0" id="imagebot_387" offset="1"/>
  </linearGradient>
  <linearGradient id="imagebot_334">
   <stop stop-color="#ffffff" id="imagebot_386" offset="0"/>
   <stop stop-color="#ffffff" stop-opacity="0" id="imagebot_385" offset="1"/>
  </linearGradient>
  <linearGradient id="imagebot_337">
   <stop stop-color="#ffffff" id="imagebot_384" offset="0"/>
   <stop stop-color="#ffffff" stop-opacity="0" id="imagebot_383" offset="1"/>
  </linearGradient>
  <linearGradient id="imagebot_339">
   <stop stop-color="#ffffff" id="imagebot_382" offset="0"/>
   <stop stop-color="#ffffff" stop-opacity="0" id="imagebot_381" offset="1"/>
  </linearGradient>
  <linearGradient id="imagebot_342">
   <stop stop-color="#ffffff" id="imagebot_380" offset="0"/>
   <stop stop-color="#ffffff" stop-opacity="0" id="imagebot_379" offset="1"/>
  </linearGradient>
  <linearGradient id="imagebot_338">
   <stop stop-color="#ffffff" id="imagebot_378" offset="0"/>
   <stop stop-color="#ffffff" stop-opacity="0" id="imagebot_377" offset="1"/>
  </linearGradient>
  <linearGradient id="imagebot_335">
   <stop stop-color="#ffffff" id="imagebot_376" offset="0"/>
   <stop stop-color="#ffffff" stop-opacity="0" id="imagebot_375" offset="1"/>
  </linearGradient>
  <linearGradient id="imagebot_346">
   <stop stop-color="#ffffff" id="imagebot_374" offset="0"/>
   <stop stop-color="#ffffff" stop-opacity="0" id="imagebot_373" offset="1"/>
  </linearGradient>
  <linearGradient id="imagebot_348">
   <stop stop-color="#e3e4df" id="imagebot_372" offset="0"/>
   <stop stop-color="#e3e4df" stop-opacity="0" id="imagebot_371" offset="1"/>
  </linearGradient>
  <linearGradient id="imagebot_353">
   <stop stop-color="#ffffff" id="imagebot_370" offset="0"/>
   <stop stop-color="#ffffff" stop-opacity="0" id="imagebot_369" offset="1"/>
  </linearGradient>
  <linearGradient id="imagebot_349">
   <stop stop-color="#ffffff" id="imagebot_368" offset="0"/>
   <stop stop-color="#ffffff" stop-opacity="0" id="imagebot_367" offset="1"/>
  </linearGradient>
  <linearGradient id="imagebot_350">
   <stop stop-color="#ffffff" id="imagebot_366" offset="0"/>
   <stop stop-color="#ffffff" stop-opacity="0" id="imagebot_365" offset="1"/>
  </linearGradient>
  <linearGradient id="imagebot_352">
   <stop stop-color="#666666" id="imagebot_364" offset="0"/>
   <stop stop-color="#666666" stop-opacity="0" id="imagebot_363" offset="1"/>
  </linearGradient>
  <linearGradient id="imagebot_351">
   <stop stop-color="#333333" id="imagebot_362" offset="0"/>
   <stop stop-color="#333333" stop-opacity="0" id="imagebot_361" offset="1"/>
  </linearGradient>
  <filter color-interpolation-filters="sRGB" height="1.07303" y="-0.03652" width="1.071" x="-0.0355" id="imagebot_81">
   <feGaussianBlur id="imagebot_358" stdDeviation="0.60588" />
  </filter>
  <filter color-interpolation-filters="sRGB" height="1.0714" y="-0.0357" width="1.07261" x="-0.0363" id="imagebot_116">
   <feGaussianBlur id="imagebot_357" stdDeviation="1.70289" />
  </filter>
  <filter color-interpolation-filters="sRGB" height="1.072" y="-0.036" width="1.072" x="-0.036" id="imagebot_75">
   <feGaussianBlur id="imagebot_356" stdDeviation="2.48979" />
  </filter>
  <filter color-interpolation-filters="sRGB" height="1.144" y="-0.072" width="1.144" x="-0.072" id="imagebot_131">
   <feGaussianBlur id="imagebot_355" stdDeviation="4.11281" />
  </filter>
  <filter color-interpolation-filters="sRGB" height="1.0237" y="-0.01185" width="1.0243" x="-0.01215" id="imagebot_71">
   <feGaussianBlur id="imagebot_354" stdDeviation="0.73624" />
  </filter>
  <linearGradient y2="0.5" x2="1" y1="0.5" x1="0" id="imagebot_190" xlink:href="#imagebot_353"/>
  <radialGradient r="56.28855" fy="311.43497" fx="1077.3364" cy="311.43497" cx="1077.3364" gradientTransform="matrix(1,0,0,1.0168601,0,-5.2508323)" gradientUnits="userSpaceOnUse" id="imagebot_165" xlink:href="#imagebot_352"/>
  <radialGradient r="56.28855" fy="311.43497" fx="1077.3364" cy="311.43497" cx="1077.3364" gradientTransform="matrix(1,0,0,1.0168601,0,-5.2508323)" gradientUnits="userSpaceOnUse" id="imagebot_163" xlink:href="#imagebot_352"/>
  <radialGradient r="56.28855" fy="311.43497" fx="1077.3364" cy="311.43497" cx="1077.3364" gradientTransform="matrix(1,0,0,1.0168601,0,-5.2508323)" gradientUnits="userSpaceOnUse" id="imagebot_161" xlink:href="#imagebot_352"/>
  <radialGradient r="56.28855" fy="311.43497" fx="1077.3364" cy="311.43497" cx="1077.3364" gradientTransform="matrix(1,0,0,1.0168601,0,-5.2508323)" gradientUnits="userSpaceOnUse" id="imagebot_159" xlink:href="#imagebot_352"/>
  <radialGradient r="56.28855" fy="311.43497" fx="1077.3364" cy="311.43497" cx="1077.3364" gradientTransform="matrix(1,0,0,1.0168601,0,-5.2508323)" gradientUnits="userSpaceOnUse" id="imagebot_157" xlink:href="#imagebot_352"/>
  <radialGradient r="56.28855" fy="311.43497" fx="1077.3364" cy="311.43497" cx="1077.3364" gradientTransform="matrix(1,0,0,1.0168601,0,-5.2508323)" gradientUnits="userSpaceOnUse" id="imagebot_155" xlink:href="#imagebot_352"/>
  <radialGradient r="56.28855" fy="311.43497" fx="1077.3364" cy="311.43497" cx="1077.3364" gradientTransform="matrix(1,0,0,1.0168601,0,-5.2508323)" gradientUnits="userSpaceOnUse" id="imagebot_153" xlink:href="#imagebot_352"/>
  <radialGradient r="56.28855" fy="311.43497" fx="1077.3364" cy="311.43497" cx="1077.3364" gradientTransform="matrix(1,0,0,1.0168601,0,-5.2508323)" gradientUnits="userSpaceOnUse" id="imagebot_151" xlink:href="#imagebot_352"/>
  <radialGradient r="56.28855" fy="311.43497" fx="1077.3364" cy="311.43497" cx="1077.3364" gradientTransform="matrix(1,0,0,1.0168601,0,-5.2508323)" gradientUnits="userSpaceOnUse" id="imagebot_149" xlink:href="#imagebot_352"/>
  <radialGradient r="56.28855" fy="311.43497" fx="1077.3364" cy="311.43497" cx="1077.3364" gradientTransform="matrix(1,0,0,1.0168601,0,-5.2508323)" gradientUnits="userSpaceOnUse" id="imagebot_147" xlink:href="#imagebot_352"/>
  <linearGradient y2="0.5" x2="0.80778" y1="0.5" x1="0.19222" id="imagebot_139" xlink:href="#imagebot_351"/>
  <linearGradient y2="0.77445" x2="0.84673" y1="-0.01735" x1="0.52867" id="imagebot_137" xlink:href="#imagebot_350"/>
  <linearGradient y2="0.5" x2="1.00494" y1="0.5" x1="-0.00494" id="imagebot_135" xlink:href="#imagebot_349"/>
  <linearGradient y2="0.5" x2="1" y1="0.5" x1="0" id="imagebot_130" xlink:href="#imagebot_353"/>
  <radialGradient r="56.28855" fy="311.43497" fx="1077.3364" cy="311.43497" cx="1077.3364" gradientTransform="matrix(1,0,0,1.0168601,0,-5.2508323)" gradientUnits="userSpaceOnUse" id="imagebot_104" xlink:href="#imagebot_352"/>
  <radialGradient r="56.28855" fy="311.43497" fx="1077.3364" cy="311.43497" cx="1077.3364" gradientTransform="matrix(1,0,0,1.0168601,0,-5.2508323)" gradientUnits="userSpaceOnUse" id="imagebot_102" xlink:href="#imagebot_352"/>
  <radialGradient r="56.28855" fy="311.43497" fx="1077.3364" cy="311.43497" cx="1077.3364" gradientTransform="matrix(1,0,0,1.0168601,0,-5.2508323)" gradientUnits="userSpaceOnUse" id="imagebot_100" xlink:href="#imagebot_352"/>
  <radialGradient r="56.28855" fy="311.43497" fx="1077.3364" cy="311.43497" cx="1077.3364" gradientTransform="matrix(1,0,0,1.0168601,0,-5.2508323)" gradientUnits="userSpaceOnUse" id="imagebot_98" xlink:href="#imagebot_352"/>
  <radialGradient r="56.28855" fy="311.43497" fx="1077.3364" cy="311.43497" cx="1077.3364" gradientTransform="matrix(1,0,0,1.0168601,0,-5.2508323)" gradientUnits="userSpaceOnUse" id="imagebot_96" xlink:href="#imagebot_352"/>
  <radialGradient r="56.28855" fy="311.43497" fx="1077.3364" cy="311.43497" cx="1077.3364" gradientTransform="matrix(1,0,0,1.0168601,0,-5.2508323)" gradientUnits="userSpaceOnUse" id="imagebot_94" xlink:href="#imagebot_352"/>
  <radialGradient r="56.28855" fy="311.43497" fx="1077.3364" cy="311.43497" cx="1077.3364" gradientTransform="matrix(1,0,0,1.0168601,0,-5.2508323)" gradientUnits="userSpaceOnUse" id="imagebot_92" xlink:href="#imagebot_352"/>
  <radialGradient r="56.28855" fy="311.43497" fx="1077.3364" cy="311.43497" cx="1077.3364" gradientTransform="matrix(1,0,0,1.0168601,0,-5.2508323)" gradientUnits="userSpaceOnUse" id="imagebot_90" xlink:href="#imagebot_352"/>
  <radialGradient r="56.28855" fy="311.43497" fx="1077.3364" cy="311.43497" cx="1077.3364" gradientTransform="matrix(1,0,0,1.0168601,0,-5.2508323)" gradientUnits="userSpaceOnUse" id="imagebot_88" xlink:href="#imagebot_352"/>
  <radialGradient r="56.28855" fy="311.43497" fx="1077.3364" cy="311.43497" cx="1077.3364" gradientTransform="matrix(1,0,0,1.0168601,0,-5.2508323)" gradientUnits="userSpaceOnUse" id="imagebot_86" xlink:href="#imagebot_352"/>
  <linearGradient y2="0.5" x2="0.80778" y1="0.5" x1="0.19222" id="imagebot_77" xlink:href="#imagebot_351"/>
  <linearGradient y2="0.77445" x2="0.84673" y1="-0.01735" x1="0.52867" id="imagebot_74" xlink:href="#imagebot_350"/>
  <linearGradient y2="0.5" x2="1.00494" y1="0.5" x1="-0.00494" id="imagebot_72" xlink:href="#imagebot_349"/>
  <radialGradient gradientUnits="userSpaceOnUse" gradientTransform="matrix(2.2733721,-0.18429107,0.03862381,0.47645439,-563.55885,422.00585)" r="270.27103" fy="764.06049" fx="491.14572" cy="764.06049" cx="491.14572" id="imagebot_217" xlink:href="#imagebot_348"/>
  <filter color-interpolation-filters="sRGB" height="1.18928" y="-0.09464" width="1.06431" x="-0.03215" id="imagebot_218">
   <feGaussianBlur id="imagebot_347" stdDeviation="7.24196" />
  </filter>
  <radialGradient gradientUnits="userSpaceOnUse" gradientTransform="matrix(2.5183852,0.11783266,-0.01409885,0.30132833,-1329.4597,437.32308)" r="199.72697" fy="666.62256" fx="881.76459" cy="666.62256" cx="881.76459" id="imagebot_65" xlink:href="#imagebot_346"/>
  <filter color-interpolation-filters="sRGB" height="1.61176" y="-0.30588" width="1.05209" x="-0.02604" id="imagebot_66">
   <feGaussianBlur id="imagebot_345" stdDeviation="4.2428" />
  </filter>
  <linearGradient y2="0.89803" x2="0.48354" y1="0.13816" x1="0.46376" id="imagebot_63" xlink:href="#imagebot_335"/>
  <filter color-interpolation-filters="sRGB" height="1.15959" y="-0.07979" width="1.04649" x="-0.02324" id="imagebot_48">
   <feGaussianBlur id="imagebot_344" stdDeviation="2.24108" />
  </filter>
  <linearGradient y2="0.51178" x2="1.26124" y1="0.51178" x1="0" id="imagebot_61" xlink:href="#imagebot_338"/>
  <filter color-interpolation-filters="sRGB" height="1.19115" y="-0.09558" width="1.06409" x="-0.03205" id="imagebot_54">
   <feGaussianBlur id="imagebot_343" stdDeviation="3.24143" />
  </filter>
  <linearGradient y2="0.5" x2="0.4707" y1="1.03543" x1="0.51418" id="imagebot_223" xlink:href="#imagebot_342"/>
  <filter color-interpolation-filters="sRGB" height="1.05941" y="-0.0297" width="1.04027" x="-0.02013" id="imagebot_224">
   <feGaussianBlur id="imagebot_341" stdDeviation="1.092" />
  </filter>
  <filter color-interpolation-filters="sRGB" height="1.41184" y="-0.20592" width="1.03945" x="-0.01972" id="imagebot_59">
   <feGaussianBlur id="imagebot_340" stdDeviation="4.22235" />
  </filter>
  <linearGradient y2="0.63324" x2="1.37534" y1="0.5" x1="-0.01972" id="imagebot_58" xlink:href="#imagebot_339"/>
  <linearGradient y2="0.55976" x2="-0.29777" y1="0.48096" x1="0.92488" id="imagebot_53" xlink:href="#imagebot_338"/>
  <linearGradient y2="0.5" x2="0.85814" y1="0.5" x1="0" id="imagebot_50" xlink:href="#imagebot_337"/>
  <filter color-interpolation-filters="sRGB" height="1.04378" y="-0.02189" width="1.05312" x="-0.02656" id="imagebot_51">
   <feGaussianBlur id="imagebot_336" stdDeviation="0.74469" />
  </filter>
  <linearGradient y2="0.89803" x2="0.45304" y1="0.13816" x1="0.43452" id="imagebot_47" xlink:href="#imagebot_335"/>
  <linearGradient y2="0.32609" x2="-0.65741" y1="0.54348" x1="0.87963" id="imagebot_44" xlink:href="#imagebot_334"/>
  <filter color-interpolation-filters="sRGB" height="1.34174" y="-0.17087" width="1.07278" x="-0.03639" id="imagebot_45">
   <feGaussianBlur id="imagebot_333" stdDeviation="3.64351" />
  </filter>
  <linearGradient y2="0.5" x2="1" y1="0.5" x1="0" id="imagebot_42" xlink:href="#imagebot_332"/>
  <radialGradient gradientUnits="userSpaceOnUse" gradientTransform="matrix(1,0,0,0.66274678,0,208.7243)" r="19.30452" fy="631.3764" fx="353.67407" cy="631.3764" cx="353.67407" id="imagebot_200" xlink:href="#imagebot_331"/>
  <linearGradient y2="0.5" x2="1" y1="0.5" x1="0" id="imagebot_39" xlink:href="#imagebot_330"/>
  <filter color-interpolation-filters="sRGB" height="1.0605" y="-0.03025" width="1.03978" x="-0.01989" id="imagebot_40">
   <feGaussianBlur id="imagebot_329" stdDeviation="0.95761" />
  </filter>
  <filter color-interpolation-filters="sRGB" height="1.32097" y="-0.16049" width="1.02338" x="-0.01169" id="imagebot_236">
   <feGaussianBlur id="imagebot_328" stdDeviation="1.31242" />
  </filter>
  <filter color-interpolation-filters="sRGB" height="1.30455" y="-0.15227" width="1.02721" x="-0.01361" id="imagebot_206">
   <feGaussianBlur id="imagebot_327" stdDeviation="1.31242" />
  </filter>
  <linearGradient y2="1.16009" x2="1.0135" y1="0.4981" x1="-0.01351" id="imagebot_203" xlink:href="#imagebot_326"/>
  <linearGradient y2="0.5" x2="1.02925" y1="0.5" x1="-0.02925" id="imagebot_212" xlink:href="#imagebot_325"/>
  <linearGradient y2="0.5" x2="1.02925" y1="0.5" x1="-0.02925" id="imagebot_214" xlink:href="#imagebot_324"/>
  <linearGradient y2="0.5" x2="1" y1="0.18413" x1="1.01723" id="imagebot_31" xlink:href="#imagebot_323"/>
  <filter color-interpolation-filters="sRGB" height="1.08602" y="-0.04301" width="1.19834" x="-0.09917" id="imagebot_29">
   <feGaussianBlur id="imagebot_322" stdDeviation="0.76985" />
  </filter>
  <filter color-interpolation-filters="sRGB" height="1.05579" y="-0.02789" width="1.01529" x="-0.00764" id="imagebot_233">
   <feGaussianBlur id="imagebot_321" stdDeviation="0.85461" />
  </filter>
  <filter color-interpolation-filters="sRGB" height="1.0146" y="-0.0073" width="1.06733" x="-0.03367" id="imagebot_231">
   <feGaussianBlur id="imagebot_320" stdDeviation="0.21364" />
  </filter>
  <filter color-interpolation-filters="sRGB" height="1.13878" y="-0.06939" width="1.11007" x="-0.05503" id="imagebot_18">
   <feGaussianBlur id="imagebot_319" stdDeviation="0.56265" />
  </filter>
  <filter color-interpolation-filters="sRGB" height="1.13878" y="-0.06939" width="1.12768" x="-0.06384" id="imagebot_21">
   <feGaussianBlur id="imagebot_318" stdDeviation="0.56265" />
  </filter>
  <filter color-interpolation-filters="sRGB" height="1.09388" y="-0.04694" width="1.133" x="-0.0665" id="imagebot_24">
   <feGaussianBlur id="imagebot_317" stdDeviation="0.56265" />
  </filter>
  <filter color-interpolation-filters="sRGB" height="1.0798" y="-0.0399" width="1.152" x="-0.076" id="imagebot_27">
   <feGaussianBlur id="imagebot_316" stdDeviation="0.56265" />
  </filter>
  <linearGradient y2="0.5" x2="1.076" y1="0.5" x1="-0.076" id="imagebot_26" xlink:href="#imagebot_315"/>
  <linearGradient y2="0.5" x2="1.0665" y1="0.5" x1="-0.0665" id="imagebot_23" xlink:href="#imagebot_314"/>
  <linearGradient y2="0.5" x2="1.06384" y1="0.5" x1="-0.06384" id="imagebot_20" xlink:href="#imagebot_313"/>
  <linearGradient y2="0.5" x2="1.05503" y1="0.5" x1="-0.05504" id="imagebot_17" xlink:href="#imagebot_312"/>
  <linearGradient y2="0.48965" x2="1" y1="0.48965" x1="0.02273" id="imagebot_13" xlink:href="#imagebot_311"/>
  <filter color-interpolation-filters="sRGB" height="1.06409" y="-0.03204" width="1.03837" x="-0.01918" id="imagebot_14">
   <feGaussianBlur id="imagebot_310" stdDeviation="1.02518" />
  </filter>
  <filter color-interpolation-filters="sRGB" height="1.17689" y="-0.08844" width="1.06588" x="-0.03294" id="imagebot_245">
   <feGaussianBlur id="imagebot_297" stdDeviation="1.67006" />
  </filter>
  <filter color-interpolation-filters="sRGB" height="1.07789" y="-0.03894" width="1.06694" x="-0.03347" id="imagebot_248">
   <feGaussianBlur id="imagebot_296" stdDeviation="0.35606" />
  </filter>
  <linearGradient y2="0.5" x2="1.05912" y1="0.5" x1="-0.05912" id="imagebot_10" xlink:href="#imagebot_295"/>
  <linearGradient y2="0.5" x2="1.03347" y1="0.5" x1="-0.03347" id="imagebot_247" xlink:href="#imagebot_294"/>
  <filter color-interpolation-filters="sRGB" height="1.0606" y="-0.0303" width="1.08868" x="-0.04434" id="imagebot_9">
   <feGaussianBlur id="imagebot_293" stdDeviation="1.79283" />
  </filter>
  <filter color-interpolation-filters="sRGB" height="1.97222" y="-0.48611" width="1.05049" x="-0.02525" id="imagebot_273">
   <feGaussianBlur id="imagebot_287" stdDeviation="12.8235" />
  </filter>
  <filter color-interpolation-filters="sRGB" height="1.05358" y="-0.02679" width="1.4608" x="-0.2304" id="imagebot_5">
   <feGaussianBlur id="imagebot_286" stdDeviation="2.3878" />
  </filter>
  <radialGradient gradientUnits="userSpaceOnUse" gradientTransform="matrix(0.99995714,0.00925886,-0.00392927,0.4243615,2.738827,445.26393)" r="687.83783" fy="689.49841" fx="690.54053" cy="689.49841" cx="690.54053" id="imagebot_275" xlink:href="#imagebot_277"/>
 </defs>
 <metadata id="imagebot_276">image/svg+xml</metadata>
 <g id="imagebot_2" label="Layer 1">
  <path transform="matrix(1 0 0 1 35.0181 -548.038)" label="Layer 1" opacity="0.659" fill="#000000" fill-rule="evenodd" stroke="#000000" stroke-width="1px" filter="url(#imagebot_273)" d="M1070.7616,1032.1592L845.64199,1032.1592L329.02112,1032.1592C318.9803,1032.1592 288.29164,1037.7159 279.95656,1032.1592C273.20978,1027.6613 269.43858,1019.3749 262.63966,1014.8423C250.36866,1006.6616 160.9088,1018.0862 150.07981,1023.5007C138.51791,1029.2817 104.02672,1014.717 95.24296,1023.5007C88.0572,1030.6865 118.84879,1030.4578 115.44601,1032.1592C110.8612,1034.4516 55.59735,1044.4643 63.4953,1052.3622C65.02579,1053.8927 195.45569,1052.3622 207.80281,1052.3622C225.79167,1052.3622 319.36551,1047.5344 329.02112,1052.3622C338.54366,1057.1235 342.20501,1060.6051 352.11032,1063.9068C371.90159,1070.5039 480.47585,1063.9068 507.96242,1063.9068L842.75584,1063.9068C866.28441,1063.9068 1039.8759,1057.1224 1053.4447,1063.9068C1083.4657,1078.9173 1115.3075,1072.5653 1151.5739,1072.5653C1167.6911,1072.5653 1183.7723,1080.3222 1189.0938,1069.6791C1189.6928,1068.4811 1196.7448,1070.6866 1197.7523,1069.6791C1209.4779,1057.9535 1246.7626,1063.9068 1264.1337,1063.9068C1269.906,1063.9068 1284.0321,1069.0697 1281.4506,1063.9068C1279.4274,1059.8604 1276.2925,1058.1345 1252.5891,1058.1345C1252.5651,1058.1345 1282.1728,1053.8065 1278.5645,1046.5899C1277.8545,1045.1701 1263.3595,1046.5899 1261.2476,1046.5899C1252.7474,1046.5899 1250.2871,1040.8176 1241.0445,1040.8176C1224.1988,1040.8176 1119.7301,1044.6018 1114.0539,1040.8176C1091.1457,1025.5455 1095.8018,1032.1592 1070.7616,1032.1592z" id="imagebot_272"/>
  <path transform="matrix(1 0 0 1 35.0181 -548.038)" label="Layer 1" clip-rule="nonzero" fill="#333333" fill-rule="evenodd" stroke="#000000" stroke-width="1px" stroke-miterlimit="4" stroke-dashoffset="0" d="M20.72739,910.37959L17.61829,889.6522L-9.32733,895.87041L-6.21822,919.70692C7.13815,910.03607 12.32502,912.61945 20.72739,910.37959z" id="imagebot_251"/>
  <path transform="matrix(1 0 0 1 35.0181 -548.038)" label="Layer 1" clip-rule="nonzero" fill="#1a1a1a" fill-rule="evenodd" stroke="#000000" stroke-width="1px" stroke-miterlimit="4" stroke-dashoffset="0" d="M-5.18185,868.9248L11.40007,872.03391L14.50918,859.59747L12.43644,835.76097C12.43644,835.76097 12.43644,832.65186 8.29096,834.7246C-0.96036,837.05644 16.02941,859.43935 4.14548,860.63384C-6.21822,861.67021 -13.47281,863.74295 -13.47281,863.74295L-5.18185,868.9248z" id="imagebot_250"/>
  <path transform="matrix(1 0 0 1 35.0181 -548.038)" label="Layer 1" clip-rule="nonzero" fill="#4d4d4d" fill-rule="evenodd" stroke-width="1px" stroke-miterlimit="4" stroke-dashoffset="0" d="M15.54555,810.8881C19.41408,815.5177 11.40007,828.50638 11.40007,828.50638C11.40007,828.50638 -6.95786,823.32202 -7.25459,829.54275C-8.56694,857.05529 -10.37659,853.43559 -6.21822,916.59781C-5.18294,932.3228 16.9541,935.5712 36.27294,937.3252L87.05505,934.21609L89.12275,953.90712L25.90924,952.87075C-0.35896,949.01743 -11.20468,943.80678 -19.69102,929.03425C-25.93949,905.27398 -33.41846,851.78009 -23.93423,812.96084C-21.55089,803.20573 7.0956,800.77576 15.54555,810.8881z" id="imagebot_249"/>
  <rect transform="translate(-2.44141 4.88281) matrix(1 0 0 1 2.7027 -501.011)" label="Layer 1" opacity="0.54" fill="url(#imagebot_275)" fill-rule="nonzero" stroke-width="2" stroke-linecap="round" stroke-linejoin="round" stroke-miterlimit="4" stroke-dashoffset="0" y="501.01089" x="-2.7027" height="562.16217" width="1375.6757" id="imagebot_274"/>
  <path transform="matrix(1 0 0 1 35.0181 -548.038)" label="Layer 1" opacity="0.645" fill="url(#imagebot_247)" fill-rule="evenodd" stroke-width="1px" filter="url(#imagebot_248)" d="M-15.53295,813.15483C-17.69646,813.5377 -13.92956,830.24107 -13.97965,830.24107C-14.49742,830.24107 -12.79247,830.60719 -12.42636,830.24107C-8.35789,826.17261 -15.2364,828.39123 -10.87306,824.02789C-10.36833,823.52316 -5.07957,821.76068 -3.10659,817.81471C-3.02343,817.6484 7.76648,812.18604 7.76648,814.70812C7.76648,816.46896 9.45879,808.63396 9.31977,808.49494C8.96501,808.14019 -5.36987,810.61406 -15.53295,813.15483z" id="imagebot_246"/>
  <path transform="matrix(1 0 0 1 35.0181 -548.038)" label="Layer 1" clip-rule="nonzero" fill="#000000" fill-rule="evenodd" stroke-width="1px" stroke-miterlimit="4" stroke-dashoffset="0" filter="url(#imagebot_245)" d="M7.76648,895.47946C3.01792,920.6251 31.37828,937.79155 43.49226,940.52501C49.73959,941.93469 88.53781,937.41842 88.53781,937.41842L128.92347,929.65194L37.27908,895.47946L7.76648,895.47946z" id="imagebot_244"/>
  <path transform="matrix(1 0 0 1 35.0181 -548.038)" label="Layer 1" clip-rule="nonzero" fill="#000000" fill-rule="evenodd" stroke-width="1px" stroke-miterlimit="4" stroke-dashoffset="0" d="M289.65591,889.33186L303.90129,952.64463L921.20078,958.97591L927.53205,916.23979L289.65591,889.33186z" id="imagebot_243"/>
  <path transform="matrix(1 0 0 1 35.0181 -548.038)" label="Layer 1" clip-rule="nonzero" fill="#333333" fill-rule="evenodd" stroke="#000000" stroke-width="1px" stroke-miterlimit="4" stroke-dashoffset="0" d="M809.87264,733.26495L834.1315,604.5064L699.77475,597.04214L610.20358,595.17607L498.23962,610.10459L341.49008,690.34544L356.41861,727.66676L363.88287,755.65775L434.79338,746.32742L421.73092,701.54183L444.12371,686.6133C455.94213,696.84383 467.76054,677.56022 479.57896,664.22051C524.17684,644.3747 576.06471,646.39889 625.13211,639.96165L787.47985,641.82772L787.47985,736.99709L809.87264,733.26495z" id="imagebot_242"/>
  <path transform="matrix(1 0 0 1 35.0181 -548.038)" label="Layer 1" clip-rule="nonzero" fill="none" fill-rule="evenodd" stroke="#000000" stroke-width="5.2" stroke-linecap="round" stroke-miterlimit="4" stroke-dashoffset="0" d="M432.92731,703.4079L455.3201,742.59529" id="imagebot_240"/>
  <path transform="matrix(1 0 0 1 35.0181 -548.038)" label="Layer 1" opacity="0.293" fill="#00ffff" stroke="#000000" stroke-width="4.528" stroke-miterlimit="4" id="imagebot_239" d="M595.81978,726.35866C395.92946,730.60156 383.18662,728.85436 383.18662,728.85436C319.52247,728.01596 395.35193,676.60516 413.27636,664.25336C448.99735,639.77329 481.72079,626.03444 481.72079,626.03444C530.93081,610.79681 611.86509,611.54621 611.86509,611.54621C618.74885,613.66916 616.61124,619.04012 616.61124,619.04012L601.87321,715.71166C601.62341,726.45286 595.81978,726.35866 595.81978,726.35866z"/>
  <path transform="matrix(1 0 0 1 35.0181 -548.038)" label="Layer 1" fill="#747570" stroke="#4d4d4d" stroke-width="2.25611" stroke-miterlimit="4" d="M 679.9082010620554 590.0592041015625 C 650.2822310620554 590.1183341015625 632.1152310620554 591.1275641015625 632.1152310620554 591.1275641015625 C 581.6956710620553 593.1048041015625 534.2421910620554 597.3892841015625 534.2421910620554 597.3892841015625 C 485.14079106205537 603.6505341015625 470.9707010620554 611.2291241015625 470.9707010620554 611.2291241015625 C 384.3017910620554 651.7624941015625 324.65430106205537 699.8756141015625 324.65430106205537 699.8756141015625 L 309.49609106205537 705.1490441015625 C 275.2239810620554 703.5013541015625 266.9863310620554 706.7955341015625 266.9863310620554 706.7955341015625 C 75.93203106205539 718.0666041015625 23.64453106205539 751.4088141015625 23.64453106205539 751.4088141015625 C 15.98287106205539 766.0658841015625 19.46289106205539 772.1529541015625 19.46289106205539 772.1529541015625 C 9.89663106205539 794.7641141015625 7.720701062055389 805.6353741015625 7.720701062055389 805.6353741015625 C -2.2803889379446107 812.5926541015625 2.0683610620553896 827.8131141015625 2.0683610620553896 827.8131141015625 L 3.8085910620553896 879.9908441015625 C -5.07578893794461 899.5160941015624 12.48346106205539 919.9849041015625 31.203121062055388 921.3013941015624 C 46.42218106205539 923.0407241015625 62.50977106205539 927.8228741015625 62.50977106205539 927.8228741015625 C 85.99059106205539 936.9543041015625 91.64453106205539 935.6510041015624 91.64453106205539 935.6510041015624 C 98.31052106205539 933.8420041015625 95.99219106205538 925.2135041015624 95.99219106205538 925.2135041015624 C 95.99219106205538 869.9900741015625 122.9511710620554 846.0748241015625 122.9511710620554 846.0748241015625 C 155.3460110620554 811.9406541015625 207.3085910620554 814.3326441015624 207.3085910620554 814.3326441015624 C 267.3151510620554 812.1584941015625 293.40430106205537 843.4654541015625 293.40430106205537 843.4654541015625 C 317.31996106205537 870.8597541015624 326.4511710620554 923.4752241015625 326.4511710620554 923.4752241015625 C 327.8339110620554 929.1941941015625 329.92578106205536 932.6881141015625 329.92578106205536 932.6881141015625 C 337.93402106205536 939.5523341015626 365.7753910620554 934.7877241015625 365.7753910620554 934.7877241015625 C 410.8315210620554 933.8160041015625 519.6484410620554 932.4986541015626 519.6484410620554 932.4986541015626 C 790.7845610620554 936.5027841015625 820.5293010620554 939.3638941015624 820.5293010620554 939.3638941015624 C 853.7062910620554 941.6519641015625 865.1464810620554 942.2232641015626 865.1464810620554 942.2232641015626 C 873.1547210620554 942.7952741015624 889.1718810620554 939.9361541015626 889.1718810620554 939.9361541015626 L 854.2793010620554 935.9302941015625 C 870.0533910620554 848.1104641015625 875.9644910620553 773.9318941015625 872.0371110620554 770.0045141015626 C 881.6665510620554 687.3577441015625 872.7929710620554 643.0689741015625 872.7929710620554 643.0689741015625 C 870.0037310620554 631.8956441015625 865.9765610620553 618.1588141015625 865.9765610620553 618.1588141015625 C 856.8015610620554 601.8416841015625 836.7597710620554 598.7076441015626 836.7597710620554 598.7076441015626 C 775.0328810620554 591.4783641015625 717.9987410620554 589.9831741015626 679.9082010620554 590.0592041015625 z M 654.3125010620554 609.9224841015625 L 797.3261710620554 615.5455341015625 C 797.3261710620554 615.5455341015625 815.2686410620554 615.5463641015625 818.4824210620554 627.8658441015625 C 818.4824210620554 627.8658441015625 822.7689910620554 675.5367941015625 812.3242210620554 703.1217041015625 C 812.3242210620554 703.1217041015625 808.3055510620554 716.5122241015625 778.5781210620554 721.0650641015625 L 644.4043010620554 725.6177941015625 C 644.4043010620554 725.6177941015625 639.0465710620554 726.4208341015625 637.1718810620554 719.4576441015624 L 644.9394510620554 616.0826441015626 C 644.9394510620554 616.0826441015626 645.7424410620554 609.9224841015625 654.3125010620554 609.9224841015625 z M 606.2910210620554 611.4107641015624 C 608.6001810620554 611.4014641015625 609.8652310620554 611.4127641015625 609.8652310620554 611.4127641015625 C 616.7489910620554 613.5357141015625 614.6113310620553 618.9069041015625 614.6113310620553 618.9069041015625 L 599.8730510620554 715.5768341015626 C 599.6232510620554 726.3181141015625 593.8203110620553 726.2252741015625 593.8203110620553 726.2252741015625 C 393.92999106205536 730.4681741015625 381.1875010620554 728.7213641015625 381.1875010620554 728.7213641015625 C 317.5233510620554 727.8830241015626 393.3509610620554 676.4715341015625 411.2753910620554 664.1198041015625 C 446.9963810620554 639.6396341015625 479.7207010620554 625.9010041015625 479.7207010620554 625.9010041015625 C 522.7794710620553 612.5680741015625 590.1269010620554 611.4756541015624 606.2910210620554 611.4107641015624 z" id="imagebot_238"/>
  <path transform="matrix(1 0 0 1 35.0181 -548.038)" label="Layer 1" fill="#000000" stroke="#000000" stroke-width="2.25611" stroke-miterlimit="4" d="M325.29519,920.85535C325.29519,920.85535 316.36299,850.33352 275.79556,825.19709C275.79556,825.19709 210.87925,783.94867 132.12832,829.70931C132.12832,829.70931 89.32518,862.67584 95.42469,932.62786C235.12456,943.71086 325.29519,920.85535 325.29519,920.85535z" id="imagebot_237"/>
  <path transform="matrix(1 0 0 1 35.0181 -548.038)" label="Layer 1" opacity="0.71" fill="#babbb6" stroke-width="1.12805px" filter="url(#imagebot_236)" d="M347.16767,873.68747C355.32036,864.68573 367.27829,865.30607 367.27829,865.30607C373.53088,862.93617 397.13882,856.77748 397.13882,856.77748L615.7476,856.93561C615.34201,866.26423 616.5588,876.40404 616.5588,876.40404L356.97984,875.99845C352.92392,875.99845 347.16767,873.68747 347.16767,873.68747z" id="imagebot_235"/>
  <path transform="matrix(1 0 0 1 35.0181 -548.038)" label="Layer 1" fill="#000000" stroke="#333333" stroke-width="2.25611" stroke-miterlimit="4" d="M878.54083,727.23636L1268.7332,730.50978C1278.8862,731.16446 1280.8432,737.87529 1280.8432,737.87529L877.63811,736.79608L878.54083,727.23636z" id="imagebot_234"/>
  <g label="Layer 1" id="imagebot_229" transform="matrix(1 0 0 1 -34.5165 105.456)">
   <path clip-rule="nonzero" fill="#000000" fill-rule="evenodd" stroke="#000000" stroke-width="1px" stroke-miterlimit="4" stroke-dashoffset="0" filter="url(#imagebot_233)" id="imagebot_232" d="M1164.4843,298.39368L1235.0725,285.15838L1264.4843,285.15838L1270.3666,291.04074L1295.3666,289.57015L1302.7196,288.09956L1314.4843,285.15838L1317.4254,291.04074L1323.3078,291.04074L1324.7784,301.33485L1332.1313,295.4525L1327.7196,291.04074L1332.1313,291.04074L1329.1902,279.27603L1346.8372,279.27603L1352.7196,295.4525C1368.8573,302.35866 1374.8095,297.04236 1379.855,290.63785C1386.2816,280.16895 1383.6838,274.21228 1381.3256,268.13581L1370.3666,270.4525C1370.3666,270.4525 1371.7471,282.64576 1367.4254,285.15838C1365.1381,286.48823 1359.8912,282.66041 1359.8912,282.66041L1357.5746,267.55164L1346.8372,264.57015L1346.8372,270.4525L1327.7196,264.57015L1332.9774,262.51539L1386.5431,260.15838C1394.1076,256.23681 1392.4743,252.31525 1386.5431,248.39368L1369.1176,248.57496L1371.8776,230.34373C1373.8299,217.44745 1351.8143,208.55606 1346.8372,230.74662L1346.8372,235.15838L1354.1902,241.04074L1354.1902,245.4525L1123.3078,254.27603L1164.4843,298.39368z"/>
   <path clip-rule="nonzero" fill="#000000" fill-rule="evenodd" stroke="#000000" stroke-width="1px" stroke-miterlimit="4" stroke-dashoffset="0" filter="url(#imagebot_231)" id="imagebot_230" d="M1178.6121,278.18418L1188.7652,348.41016L1193.8418,348.41016L1185.3808,279.03027L1178.6121,278.18418z"/>
  </g>
  <path transform="matrix(1 0 0 1 35.0181 -548.038)" label="Layer 1" fill="#747570" stroke="#4d4d4d" stroke-width="2.25611" stroke-miterlimit="4" d="M875.63632,736.5765C870.00469,774.08276 855.82196,936.33391 855.82196,936.33391L888.81222,939.52652C898.41681,861.38102 934.04081,844.28046 934.04081,844.28046C1012.7917,798.51978 1077.7081,839.76818 1077.7081,839.76818C1118.2754,864.90466 1116.5514,930.73773 1116.5514,930.73773C1119.0345,941.38003 1127.7256,938.46232 1127.7256,938.46232L1153.2664,926.7561C1255.9265,913.61764 1257.3174,912.69041 1257.3174,912.69041C1273.0165,905.40969 1283.3924,869.2771 1284.6705,851.0301C1293.9428,790.76063 1279.5708,737.90894 1279.5708,737.90894L875.63632,736.5765z" id="imagebot_228"/>
  <path transform="matrix(1 0 0 1 35.0181 -548.038)" label="Layer 1" fill="#000000" stroke="#000000" stroke-width="2.25611" stroke-miterlimit="4" d="M1117.9283,930.97191C1117.9283,930.97191 1119.6523,865.1388 1079.0849,840.00237C1079.0849,840.00237 1014.1686,798.75395 935.41767,844.51459C935.41767,844.51459 899.79367,861.61521 890.18908,939.76069C1101.0724,937.63001 1117.9283,930.97191 1117.9283,930.97191z" id="imagebot_227"/>
  <path transform="matrix(1 0 0 1 35.0181 -548.038)" label="Layer 1" fill="#747570" stroke="#4d4d4d" stroke-width="2.25611" stroke-miterlimit="4" d="M1153.6483,926.21653L1128.1074,937.92268C1128.1074,937.92268 1119.4163,940.8404 1116.9333,930.19811C1116.9333,930.19811 1118.6573,864.365 1078.0899,839.22857C1078.0899,839.22857 1013.1736,797.98015 934.42262,843.74079C934.42262,843.74079 898.79863,860.84141 889.19404,938.98689L857.78659,940.54273C865.58041,904.81821 870.45908,868.75638 870.45908,868.75638C878.90872,830.98151 910.22209,812.5911 910.22209,812.5911C963.36123,770.17171 1077.3269,766.3978 1123.4513,827.50224C1149.6996,864.9679 1153.6483,926.21653 1153.6483,926.21653z" id="imagebot_226"/>
  <path transform="matrix(1 0 0 1 35.0181 -548.038)" label="Layer 1" fill="#800000" stroke="#4d4d4d" stroke-width="1.69208" stroke-miterlimit="4" d="M1283.7477,854.38685C1258.0856,857.28141 1252.1469,859.98252 1261.6962,819.47198L1270.2718,780.88186C1277.0098,763.7307 1284.9728,761.89308 1284.9728,761.89308C1292.3232,767.09968 1290.7919,790.68252 1290.7919,790.68252C1290.7919,793.43896 1288.0355,797.42048 1288.0355,797.42048C1288.3417,804.46471 1290.4856,805.99607 1290.4856,805.99607C1290.7919,841.21721 1287.7292,846.11754 1287.7292,846.11754L1283.7477,854.38685z" id="imagebot_225"/>
  <path transform="matrix(1 0 0 1 35.0181 -548.038)" label="Layer 1" opacity="0.424" fill="url(#imagebot_223)" stroke-width="1.12805px" filter="url(#imagebot_224)" d="M1143.782,855.30566C1153.8888,846.11754 1160.9331,846.42382 1160.9331,846.42382L1207.4862,843.36111C1233.5192,839.07332 1240.2572,828.35384 1240.2572,828.35384C1259.8585,785.47592 1259.8585,782.41321 1259.8585,782.41321C1262.0025,777.20661 1268.7405,786.701 1268.7405,786.701L1258.9397,817.32808C1248.2202,852.54923 1241.4823,852.24295 1241.4823,852.24295C1223.7186,867.25022 1143.4756,869.08784 1143.4756,869.08784C1141.0255,861.73735 1138.5753,857.14329 1138.5753,857.14329L1143.782,855.30566z" id="imagebot_222"/>
  <path transform="matrix(1 0 0 1 35.0181 -548.038)" label="Layer 1" fill="none" stroke="#4d4d4d" stroke-width="2.25611" stroke-miterlimit="4" d="M631.23167,603.79082C500.39246,604.45796 472.79962,622.55076 472.79962,622.55076C355.16973,677.8432 346.89723,714.13554 346.89723,714.13554C335.09533,753.71739 336.71217,834.15525 336.71217,834.15525C335.90375,917.42259 363.79427,912.57208 363.79427,912.57208L622.48534,914.39192C610.80326,792.42955 616.43348,753.01805 616.43348,753.01805C630.91117,613.06697 631.23167,603.79082 631.23167,603.79082z" id="imagebot_221"/>
  <path transform="matrix(1 0 0 1 35.0181 -548.038)" label="Layer 1" fill="#696969" stroke="#000000" stroke-width="1.12805px" d="M612.53383,611.26136C618.69357,614.47512 616.28323,619.83142 616.28323,619.83142L601.0178,720.79754C602.62469,725.88601 618.69357,724.01131 618.69357,724.01131L631.01303,609.65446L612.53383,611.26136z" id="imagebot_220"/>
  <path transform="matrix(1 0 0 1 35.0181 -548.038)" label="Layer 1" fill="#696969" stroke="#000000" stroke-width="1.12805px" d="M630.47741,609.92229L647.08191,610.1901L637.97622,723.20787L619.76483,723.7435L630.47741,609.92229z" id="imagebot_219"/>
  <path label="Layer 1" clip-rule="nonzero" fill="url(#imagebot_217)" fill-rule="evenodd" stroke-width="1px" stroke-miterlimit="4" stroke-dashoffset="0" filter="url(#imagebot_218)" d="M358.55332,694.29246C352.56089,755.18868 313.79935,781.983 358.55332,784.41885C410.62497,787.25298 507.56598,779.54715 557.1772,781.983C606.78843,784.41885 703.21716,779.54713 760.27007,779.54713C817.32298,779.54713 857.23566,806.34144 864.67734,781.98295C872.11903,757.62446 867.06843,628.52455 864.58784,606.60191C862.10729,584.67927 857.14616,589.55097 839.78224,589.55097C822.41831,589.55097 772.80707,587.11512 790.171,596.85851C807.53493,606.60191 839.91539,679.98631 805.05437,694.29246C772.25233,707.75366 753.26093,706.70482 636.3762,713.77926C618.06102,714.88779 653.56396,610.71933 638.85676,611.47361C626.47083,612.10885 614.05114,591.98682 609.09002,630.9604C604.12889,669.93398 628.80983,724.76119 591.60141,729.63289C554.39299,734.50459 349.45976,743.84089 353.84156,729.61699L368.47555,682.11318L472.65914,611.47357C389.34314,651.78401 396.50343,666.71003 358.5533,694.29242L358.55332,694.29246z" id="imagebot_216" transform="matrix(1.00001 0 0 1 35.0117 -548.039)"/>
  <path transform="matrix(1 0 0 1 35.0181 -548.038)" label="Layer 1" fill="none" stroke="#4d4d4d" stroke-width="2.25611" stroke-miterlimit="4" d="M848.38621,767.26948C848.38621,767.26948 842.32306,844.87788 826.55885,889.34102C826.55885,889.34102 824.5378,918.84838 788.56308,916.42312L622.46767,914.74226C611.03132,792.9816 616.66154,753.57009 616.66154,753.57009C631.13923,613.61902 631.45973,603.77376 631.45973,603.77376C775.31878,606.04021 784.74228,607.03217 784.74228,607.03217C815.42055,609.43707 825.95424,610.14353 825.95424,610.14353C847.50025,616.80783 845.82201,633.60424 845.82201,633.60424C852.67765,679.55525 848.38621,767.26948 848.38621,767.26948z" id="imagebot_215"/>
  <ellipse transform="matrix(1 0 0 1 35.0181 -548.038)" label="Layer 1" fill="url(#imagebot_214)" stroke="#4d4d4d" stroke-width="1.69208" stroke-miterlimit="4" stroke-dashoffset="0" stroke-opacity="0.99608" ry="13.99565" rx="14.46217" cy="760.38586" cx="804.38568" id="imagebot_213"/>
  <ellipse transform="matrix(1 0 0 1 35.0181 -548.038)" label="Layer 1" fill="url(#imagebot_212)" stroke="#4d4d4d" stroke-width="1.69208" stroke-miterlimit="4" stroke-dashoffset="0" stroke-opacity="0.99608" ry="13.99565" rx="14.46217" cy="761.78546" cx="576.25665" id="imagebot_211"/>
  <path transform="matrix(1 0 0 1 35.0181 -548.038)" label="Layer 1" fill="#cccccc" stroke="#4d4d4d" stroke-width="2.25611" stroke-miterlimit="4" d="M552.44049,757.5519C544.98681,760.13202 553.35028,764.63171 553.35028,764.63171C577.32078,767.55267 594.76799,766.43107 594.76799,766.43107L594.64336,756.58587C558.00425,755.58888 552.44049,757.5519 552.44049,757.5519z" id="imagebot_210"/>
  <path transform="matrix(1 0 0 1 35.0181 -548.038)" label="Layer 1" opacity="0.667" fill="#f5f5f5" stroke="#4d4d4d" stroke-width="2.25611" stroke-miterlimit="4" d="M594.71624,756.33842L594.90486,766.33539C614.51154,766.33839 610.9304,756.29497 594.71624,756.33842z" id="imagebot_209"/>
  <path transform="matrix(1 0 0 1 35.0181 -548.038)" label="Layer 1" fill="#b3b3b3" stroke="#4d4d4d" stroke-width="2.25611" stroke-miterlimit="4" d="M780.25941,756.284C772.80572,758.86412 781.16919,763.36381 781.16919,763.36381C805.13969,766.28477 822.5869,765.16317 822.5869,765.16317L822.46227,755.31797C785.82316,754.32098 780.25941,756.284 780.25941,756.284z" id="imagebot_208"/>
  <path transform="matrix(1 0 0 1 35.0181 -548.038)" label="Layer 1" opacity="0.663" fill="#f5f5f5" stroke="#4d4d4d" stroke-width="2.25611" stroke-miterlimit="4" d="M822.53515,755.07052L822.72378,765.06749C842.33045,765.07049 838.74932,755.02708 822.53515,755.07052z" id="imagebot_207"/>
  <path transform="matrix(1 0 0 1 35.0181 -548.038)" label="Layer 1" opacity="0.71" fill="#babbb6" stroke-width="1.12805px" filter="url(#imagebot_206)" d="M619.80353,856.93561C620.20912,867.8866 621.0203,875.99845 621.0203,875.99845L828.68345,877.62081C840.8803,856.7531 868.65473,868.77997 835.82092,858.65055L619.80353,856.93561z" id="imagebot_205"/>
  <path transform="matrix(1 0 0 1 35.0181 -548.038)" label="Layer 1" fill="none" stroke="#333333" stroke-width="4.528" stroke-miterlimit="4" d="M595.81978,726.35866C395.92946,730.60156 383.18662,728.85436 383.18662,728.85436C319.52247,728.01596 395.35193,676.60516 413.27636,664.25336C448.99735,639.77329 481.72079,626.03444 481.72079,626.03444C530.93081,610.79681 611.86509,611.54621 611.86509,611.54621C618.74885,613.66916 616.61124,619.04012 616.61124,619.04012L601.87321,715.71166C601.62341,726.45286 595.81978,726.35866 595.81978,726.35866z" id="imagebot_204"/>
  <path transform="matrix(1 0 0 1 35.0181 -548.038)" label="Layer 1" fill="url(#imagebot_203)" fill-rule="evenodd" stroke-width="1px" d="M371.96251,705.72483C363.20339,699.02112 364.04842,719.06542 364.04842,716.80457C364.04842,715.74935 365.10363,713.63893 364.04842,713.63893C361.68047,713.63893 359.1317,721.38477 360.88278,723.13584C363.76399,726.01706 369.85592,728.94334 373.54533,732.63276C375.1065,734.19393 375.55746,737.81052 376.71097,738.96404C381.61807,743.87114 397.28762,742.22501 397.28762,746.87813C397.28762,749.57396 397.43286,740.61948 397.28762,740.54686C394.67945,739.24277 392.83781,739.26268 390.95634,737.38122C390.2102,736.63507 390.48444,735.15939 390.95634,734.21558C391.93164,732.26499 394.72951,737.74899 395.7048,735.7984C396.41266,734.38268 394.12198,731.04994 395.7048,731.04994C398.87044,731.04994 388.44633,733.28838 386.20789,731.04994C385.46174,730.30379 386.95403,728.63045 386.20789,727.8843C383.66715,725.34356 379.76327,730.82325 378.29379,727.8843C377.34998,725.99668 380.18141,722.49684 378.29379,721.55302C369.24232,717.02729 371.96251,720.38286 371.96251,705.72483z" id="imagebot_202"/>
  <g label="Layer 1" fill="#696969" id="imagebot_197" transform="matrix(0.187152 -1.11242 1.11242 0.187152 -358.339 428.809)">
   <path fill="#696969" stroke="#4d4d4d" stroke-width="1px" id="imagebot_201" d="M337.97321,648.37982L334.37589,642.26438C334.05746,627.85551 345.7574,611.91157 365.5539,614.6913C373.60902,616.48659 374.51146,640.27953 371.11242,644.11479C368.14637,646.13171 363.99389,646.25035 363.99389,646.25035L337.97321,648.37982z"/>
   <path opacity="0.576" fill="url(#imagebot_200)" stroke-width="1px" d="M337.97321,639.96097L334.37589,635.35949C334.05746,624.51773 345.7574,612.52092 365.5539,614.61249C373.60902,615.96333 374.51146,633.86602 371.11242,636.75181C368.14637,638.26941 363.99389,638.35868 363.99389,638.35868L337.97321,639.96097z" id="imagebot_199"/>
   <path fill="#696969" stroke="#4d4d4d" stroke-width="1px" id="imagebot_198" d="M334.33337,642.21652C358.655,635.098 372.65477,639.6064 372.65477,639.6064"/>
  </g>
  <path transform="matrix(1 0 0 1 35.0181 -548.038)" label="Layer 1" fill="#4d4d4d" stroke="#4d4d4d" stroke-width="1.12805px" d="M39.79259,743.86172C36.91018,753.03303 48.43982,752.24691 48.43982,752.24691C32.19351,759.05988 18.0435,801.5099 18.0435,801.5099L7.82405,805.17843L19.09165,772.42376C17.432,758.65649 23.80832,751.4608 23.80832,751.4608C29.56248,748.00762 39.79259,743.86172 39.79259,743.86172z" id="imagebot_196"/>
  <path transform="matrix(1 0 0 1 35.0181 -548.038)" label="Layer 1" fill="#747570" stroke="#4d4d4d" stroke-width="2.25611" stroke-miterlimit="4" d="M366.25977,935.20889C366.25977,935.20889 338.41723,939.97461 330.40899,933.1104C330.40899,933.1104 328.31836,929.61542 326.93563,923.89645C326.93563,923.89645 317.80419,871.28201 293.88853,843.88772C293.88853,843.88772 267.79873,812.57996 207.79218,814.7541C207.79218,814.7541 155.82999,812.36252 123.43514,846.49669C123.43514,846.49669 96.47568,870.41235 96.47568,925.63577C96.47568,925.63577 98.79337,934.26269 92.12738,936.07169C92.12738,936.07169 86.47459,937.37619 62.99376,928.24475C55.21195,899.15055 67.78529,861.85482 67.78529,861.85482C81.58944,813.06993 130.01748,794.0814 130.01748,794.0814C176.04406,768.52292 229.33326,776.17899 229.33326,776.17899C287.30296,780.01522 305.63163,796.21264 305.63163,796.21264C333.0328,813.93553 334.19024,827.75499 334.19024,827.75499C334.19024,873.36352 339.73147,889.13468 339.73147,889.13468C344.64303,914.05638 363.1751,913.00457 363.1751,913.00457L366.25977,935.20889z" id="imagebot_195"/>
  <path transform="matrix(1 0 0 1 35.0181 -548.038)" label="Layer 1" opacity="0.522" fill="#606569" stroke="#000000" stroke-width="1.12805px" d="M18.0435,800.98583C23.49657,784.70135 36.27421,754.79284 50.79816,751.72284C77.26392,750.41265 111.06672,752.24691 111.06672,752.24691C135.96025,750.67468 118.14173,765.87284 118.14173,765.87284C89.57966,787.09786 85.64911,790.50434 85.64911,790.50434C70.89918,799.02021 66.25835,798.10343 66.25835,798.10343L18.0435,800.98583z" id="imagebot_194"/>
  <path transform="matrix(1 0 0 1 35.0181 -548.038)" label="Layer 1" fill="none" stroke="#4d4d4d" stroke-width="2.25611" stroke-miterlimit="4" d="M297.53292,709.68432C279.20426,717.78302 249.36691,718.63552 249.36691,718.63552C109.13134,732.70169 69.49029,751.88286 69.49029,751.88286" id="imagebot_193"/>
  <path transform="matrix(1 0 0 1 35.0181 -548.038)" label="Layer 1" fill="none" stroke="#4d4d4d" stroke-width="2.25611" stroke-miterlimit="4" d="M289.33848,705.2269C290.19097,715.0306 347.3082,714.60436 347.3082,714.60436" id="imagebot_192"/>
  <g label="Layer 1" transform="matrix(1 0 0 1 -250.934 80.8314)" id="imagebot_133">
   <circle fill="#000000" stroke="#1a1a1a" stroke-width="2.25611" stroke-miterlimit="4" stroke-dashoffset="0" stroke-opacity="0.99608" id="imagebot_191" cx="1295.4775" cy="324.34628" r="98.08429"/>
   <circle opacity="0.159" fill="url(#imagebot_190)" stroke-width="2.04004" stroke-miterlimit="4" stroke-dashoffset="0" stroke-opacity="0.99608" filter="url(#imagebot_131)" id="imagebot_189" cx="1294.9365" cy="324.21774" r="68.54688"/>
   <circle fill="#898e92" stroke="#696969" stroke-width="2.25611" stroke-miterlimit="4" stroke-dashoffset="0" stroke-opacity="0.99608" id="imagebot_188" cx="1294.9365" cy="323.69412" r="59.01379"/>
   <circle fill="#000000" stroke-width="2.04004" stroke-miterlimit="4" stroke-dashoffset="0" stroke-opacity="0.99608" r="53.36206" cy="323.69412" cx="1294.9365" id="imagebot_187"/>
   <circle fill="#92959a" stroke-width="2.04004" stroke-miterlimit="4" stroke-dashoffset="0" stroke-opacity="0.99608" id="imagebot_186" cx="1294.9365" cy="323.69412" r="24.56328"/>
   <g fill="#808080" filter="url(#imagebot_116)" transform="translate(219.60017,14.259152)" id="imagebot_176">
    <g fill="#808080" id="imagebot_183">
     <path clip-rule="nonzero" fill="#808080" fill-rule="evenodd" stroke-width="1px" stroke-miterlimit="4" stroke-dashoffset="0" d="M1025.2367,333.96349L1123.1526,279.50761L1117.9165,273.74785L1021.0478,328.20373L1025.2367,333.96349z" id="imagebot_185"/>
     <path clip-rule="nonzero" fill="#808080" fill-rule="evenodd" stroke-width="1px" stroke-miterlimit="4" stroke-dashoffset="0" id="imagebot_184" d="M1035.709,348.62469L1133.6249,294.16881L1128.3888,288.40905L1031.5201,342.86493L1035.709,348.62469z"/>
    </g>
    <g fill="#808080" transform="matrix(0.53566158,0.84443275,-0.84443275,0.53566158,763.02453,-765.24236)" id="imagebot_180">
     <path clip-rule="nonzero" fill="#808080" fill-rule="evenodd" stroke-width="1px" stroke-miterlimit="4" stroke-dashoffset="0" id="imagebot_182" d="M1025.2367,333.96349L1123.1526,279.50761L1117.9165,273.74785L1021.0478,328.20373L1025.2367,333.96349z"/>
     <path clip-rule="nonzero" fill="#808080" fill-rule="evenodd" stroke-width="1px" stroke-miterlimit="4" stroke-dashoffset="0" d="M1035.709,348.62469L1133.6249,294.16881L1128.3888,288.40905L1031.5201,342.86493L1035.709,348.62469z" id="imagebot_181"/>
    </g>
    <g fill="#808080" id="imagebot_177" transform="matrix(-0.50118862,0.86533806,-0.86533806,-0.50118862,1886.4156,-464.86216)">
     <path clip-rule="nonzero" fill="#808080" fill-rule="evenodd" stroke-width="1px" stroke-miterlimit="4" stroke-dashoffset="0" d="M1025.2367,333.96349L1123.1526,279.50761L1117.9165,273.74785L1021.0478,328.20373L1025.2367,333.96349z" id="imagebot_179"/>
     <path clip-rule="nonzero" fill="#808080" fill-rule="evenodd" stroke-width="1px" stroke-miterlimit="4" stroke-dashoffset="0" id="imagebot_178" d="M1035.709,348.62469L1133.6249,294.16881L1128.3888,288.40905L1031.5201,342.86493L1035.709,348.62469z"/>
    </g>
   </g>
   <g fill="#898e92" id="imagebot_166" transform="translate(217.60017,12.259152)">
    <g fill="#898e92" id="imagebot_173">
     <path clip-rule="nonzero" fill="#898e92" fill-rule="evenodd" stroke-width="1px" stroke-miterlimit="4" stroke-dashoffset="0" id="imagebot_175" d="M1025.2367,333.96349L1123.1526,279.50761L1117.9165,273.74785L1021.0478,328.20373L1025.2367,333.96349z"/>
     <path clip-rule="nonzero" fill="#898e92" fill-rule="evenodd" stroke-width="1px" stroke-miterlimit="4" stroke-dashoffset="0" d="M1035.709,348.62469L1133.6249,294.16881L1128.3888,288.40905L1031.5201,342.86493L1035.709,348.62469z" id="imagebot_174"/>
    </g>
    <g fill="#898e92" id="imagebot_170" transform="matrix(0.53566158,0.84443275,-0.84443275,0.53566158,763.02453,-765.24236)">
     <path clip-rule="nonzero" fill="#898e92" fill-rule="evenodd" stroke-width="1px" stroke-miterlimit="4" stroke-dashoffset="0" d="M1025.2367,333.96349L1123.1526,279.50761L1117.9165,273.74785L1021.0478,328.20373L1025.2367,333.96349z" id="imagebot_172"/>
     <path clip-rule="nonzero" fill="#898e92" fill-rule="evenodd" stroke-width="1px" stroke-miterlimit="4" stroke-dashoffset="0" id="imagebot_171" d="M1035.709,348.62469L1133.6249,294.16881L1128.3888,288.40905L1031.5201,342.86493L1035.709,348.62469z"/>
    </g>
    <g fill="#898e92" transform="matrix(-0.50118862,0.86533806,-0.86533806,-0.50118862,1886.4156,-464.86216)" id="imagebot_167">
     <path clip-rule="nonzero" fill="#898e92" fill-rule="evenodd" stroke-width="1px" stroke-miterlimit="4" stroke-dashoffset="0" id="imagebot_169" d="M1025.2367,333.96349L1123.1526,279.50761L1117.9165,273.74785L1021.0478,328.20373L1025.2367,333.96349z"/>
     <path clip-rule="nonzero" fill="#898e92" fill-rule="evenodd" stroke-width="1px" stroke-miterlimit="4" stroke-dashoffset="0" d="M1035.709,348.62469L1133.6249,294.16881L1128.3888,288.40905L1031.5201,342.86493L1035.709,348.62469z" id="imagebot_168"/>
    </g>
   </g>
   <g fill="url(#imagebot_147)" transform="translate(217.60017,12.259152)" id="imagebot_146">
    <g fill="url(#imagebot_161)" id="imagebot_160">
     <path clip-rule="nonzero" fill="url(#imagebot_165)" fill-rule="evenodd" stroke-width="1px" stroke-miterlimit="4" stroke-dashoffset="0" d="M1025.2367,333.96349L1123.1526,279.50761L1117.9165,273.74785L1021.0478,328.20373L1025.2367,333.96349z" id="imagebot_164"/>
     <path clip-rule="nonzero" fill="url(#imagebot_163)" fill-rule="evenodd" stroke-width="1px" stroke-miterlimit="4" stroke-dashoffset="0" id="imagebot_162" d="M1035.709,348.62469L1133.6249,294.16881L1128.3888,288.40905L1031.5201,342.86493L1035.709,348.62469z"/>
    </g>
    <g fill="url(#imagebot_155)" transform="matrix(0.53566158,0.84443275,-0.84443275,0.53566158,763.02453,-765.24236)" id="imagebot_154">
     <path clip-rule="nonzero" fill="url(#imagebot_159)" fill-rule="evenodd" stroke-width="1px" stroke-miterlimit="4" stroke-dashoffset="0" id="imagebot_158" d="M1025.2367,333.96349L1123.1526,279.50761L1117.9165,273.74785L1021.0478,328.20373L1025.2367,333.96349z"/>
     <path clip-rule="nonzero" fill="url(#imagebot_157)" fill-rule="evenodd" stroke-width="1px" stroke-miterlimit="4" stroke-dashoffset="0" d="M1035.709,348.62469L1133.6249,294.16881L1128.3888,288.40905L1031.5201,342.86493L1035.709,348.62469z" id="imagebot_156"/>
    </g>
    <g fill="url(#imagebot_149)" id="imagebot_148" transform="matrix(-0.50118862,0.86533806,-0.86533806,-0.50118862,1886.4156,-464.86216)">
     <path clip-rule="nonzero" fill="url(#imagebot_153)" fill-rule="evenodd" stroke-width="1px" stroke-miterlimit="4" stroke-dashoffset="0" d="M1025.2367,333.96349L1123.1526,279.50761L1117.9165,273.74785L1021.0478,328.20373L1025.2367,333.96349z" id="imagebot_152"/>
     <path clip-rule="nonzero" fill="url(#imagebot_151)" fill-rule="evenodd" stroke-width="1px" stroke-miterlimit="4" stroke-dashoffset="0" id="imagebot_150" d="M1035.709,348.62469L1133.6249,294.16881L1128.3888,288.40905L1031.5201,342.86493L1035.709,348.62469z"/>
    </g>
   </g>
   <g opacity="0.862" fill="#4d4d4d" filter="url(#imagebot_81)" id="imagebot_142" transform="translate(218.34714,13.613971)">
    <g fill="#4d4d4d" id="imagebot_143">
     <path fill="#4d4d4d" fill-rule="evenodd" stroke-width="1px" d="M1072.8856,297.8341C1073.5713,295.36178 1067.684,293.05239 1068.6967,291.02712C1068.8528,290.7149 1069.3948,291.02712 1069.7439,291.02712C1070.2053,291.02712 1071.3148,289.75475 1071.3148,289.97989C1071.3148,291.80052 1072.552,291.74072 1073.9328,293.12158C1074.2088,293.39755 1074.2819,294.51788 1074.4564,294.1688C1075.0888,292.90408 1079.5285,289.89783 1079.6926,289.97989C1079.9702,290.11868 1081.603,295.03199 1083.3579,296.78688C1083.8815,297.31049 1085.4523,296.78688 1085.976,297.31049C1086.7614,298.09591 1087.285,299.14314 1088.0704,299.92856C1089.4336,301.29175 1092.1059,299.59002 1093.8302,300.45218C1099.3358,303.20498 1090.6885,305.21925 1090.6885,305.68832C1090.6885,306.65469 1091.3547,309.73459 1090.6885,310.40085C1089.4923,311.59702 1089.5782,310.92446 1089.6413,310.92446C1090.659,310.92446 1090.3018,313.08739 1091.2121,313.54253C1093.3734,314.62317 1096.4482,313.19678 1096.4482,316.68422C1096.4482,317.03329 1096.7605,317.57533 1096.4482,317.73145C1095.4569,318.22711 1092.6984,316.76878 1091.2121,318.25506C1090.9503,318.51687 1091.4739,319.5641 1091.2121,319.8259C1089.4636,321.57444 1091.9507,324.43095 1089.6413,325.58566C1088.2246,326.29399 1085.8808,320.44468 1084.4051,321.92036C1083.0235,323.30201 1079.3485,322.27943 1080.7398,325.06205C1080.8692,325.32077 1082.3778,329.77457 1081.787,329.77457C1079.1078,329.77457 1078.9536,327.88066 1078.1217,326.63289C1077.8156,326.17365 1076.7977,326.60299 1076.5509,326.10927C1076.3948,325.79705 1076.7977,325.30888 1076.5509,325.06205C1076.3041,324.81521 1075.7941,325.25568 1075.5037,325.06205C1075.0444,324.75589 1075.4737,323.73804 1074.9801,323.4912C1070.5566,321.27946 1073.7811,332.24092 1070.7911,329.25096C1068.431,326.89083 1071.1371,321.74274 1070.2675,320.87313C1068.0996,318.7052 1068.4525,322.82788 1068.1731,322.96759C1066.818,323.64515 1061.757,324.92931 1061.3661,324.53843C1060.3057,323.47809 1062.7355,320.75234 1062.9369,320.34952C1063.0766,320.07026 1064.8918,320.62878 1065.0314,320.34952C1065.1875,320.03729 1064.6823,319.30229 1065.0314,319.30229C1065.3805,319.30229 1065.0314,320.69859 1065.0314,320.34952C1065.0314,318.68491 1065.0314,319.27564 1065.0314,318.25506C1065.0314,317.87663 1062.5169,316.26417 1061.8897,315.63699C1061.6621,315.40944 1058.748,315.7872 1058.748,315.63699C1058.748,314.7213 1058.5068,309.59486 1058.748,309.35362C1059.7326,308.36902 1059.342,307.11844 1059.7952,306.21193C1059.9514,305.89971 1060.6864,306.52416 1060.8425,306.21193C1061.6288,304.63936 1062.2383,302.54663 1062.4133,302.54663C1062.7624,302.54663 1063.2137,302.79347 1063.4605,302.54663C1063.8096,302.19756 1063.1115,300.80125 1063.4605,300.45218C1063.9074,300.00528 1065.555,299.38166 1065.555,299.40495C1065.555,300.03748 1065.22,297.64548 1065.555,297.31049C1066.755,296.1105 1065.466,298.53651 1066.6022,296.26326C1066.8182,295.83129 1071.6527,297.01215 1072.8856,297.8341z" id="imagebot_145"/>
     <path fill="#4d4d4d" fill-rule="evenodd" stroke-width="1px" d="M1062.9369,302.54663C1060.8788,301.90594 1056.8687,297.61897 1056.1299,298.35772C1054.3091,300.17856 1057.9745,304.14136 1058.2244,304.64109C1058.4762,305.14463 1057.6449,304.0616 1059.2716,305.68832C1059.5476,305.96429 1060.5948,305.93596 1060.3189,306.21193C1059.3007,307.23006 1061.4647,304.01884 1062.9369,302.54663z" id="imagebot_144"/>
    </g>
   </g>
   <path fill="#5b5e63" stroke-width="2.04004" stroke-miterlimit="4" stroke-dashoffset="0" stroke-opacity="0.99608" d="M1310.5984,323.69412A15.66184,15.66184 0 0 1 1294.9365,339.35596A15.66184,15.66184 0 0 1 1279.2747,323.69412A15.66184,15.66184 0 0 1 1294.9365,308.03229A15.66184,15.66184 0 0 1 1310.5984,323.69412z" id="imagebot_141"/>
   <circle fill="#9fa2a7" stroke-width="2.04004" stroke-miterlimit="4" stroke-dashoffset="0" stroke-opacity="0.99608" id="imagebot_140" cx="1294.9365" cy="323.69412" r="10.6875"/>
   <ellipse opacity="0.576" fill="url(#imagebot_139)" stroke-width="2.04004" stroke-miterlimit="4" stroke-dashoffset="0" stroke-opacity="0.99608" cy="323.69412" cx="1294.9365" id="imagebot_138" rx="12.25834" ry="10.6875"/>
   <path opacity="0.101" fill="url(#imagebot_137)" fill-rule="nonzero" stroke-width="0.7" stroke-linecap="round" stroke-linejoin="round" stroke-miterlimit="4" stroke-dashoffset="0" filter="url(#imagebot_75)" d="M1296.2074,240.23641C1250.3715,240.23572 1213.2137,277.39269 1213.2133,323.2286C1213.2126,369.06528 1250.3707,406.22343 1296.2074,406.22274C1342.0433,406.22238 1379.2003,369.06453 1379.1996,323.2286C1379.1992,277.39343 1342.0426,240.23677 1296.2074,240.23641zM1297.2543,249.13875C1338.3179,249.1386 1374.225,281.37948 1374.2259,322.44309C1374.226,363.50746 1338.3187,397.84398 1297.2543,397.84383C1256.1899,397.84404 1218.7116,362.46027 1218.7118,321.39586C1218.7127,280.33221 1256.1906,249.13854 1297.2543,249.13875z" id="imagebot_136"/>
   <ellipse opacity="0.377" fill="none" fill-rule="nonzero" stroke="url(#imagebot_135)" stroke-width="0.538" stroke-linecap="round" stroke-linejoin="round" stroke-miterlimit="4" stroke-dashoffset="0" filter="url(#imagebot_71)" id="imagebot_134" cx="-1076.5509" cy="311.3822" rx="72.70609" ry="74.542" transform="matrix(-1,0,0,1,228.4498,13.090356)"/>
  </g>
  <g label="Layer 1" id="imagebot_69" transform="matrix(1 0 0 1 -1044.08 83.3625)">
   <circle fill="#000000" stroke="#1a1a1a" stroke-width="2.25611" stroke-miterlimit="4" stroke-dashoffset="0" stroke-opacity="0.99608" r="98.08429" cy="324.34628" cx="1295.4775" id="imagebot_132"/>
   <circle opacity="0.159" fill="url(#imagebot_130)" stroke-width="2.04004" stroke-miterlimit="4" stroke-dashoffset="0" stroke-opacity="0.99608" filter="url(#imagebot_131)" r="68.54688" cy="324.21774" cx="1294.9365" id="imagebot_129"/>
   <circle fill="#898e92" stroke="#696969" stroke-width="2.25611" stroke-miterlimit="4" stroke-dashoffset="0" stroke-opacity="0.99608" r="59.01379" cy="323.69412" cx="1294.9365" id="imagebot_128"/>
   <circle fill="#000000" stroke-width="2.04004" stroke-miterlimit="4" stroke-dashoffset="0" stroke-opacity="0.99608" id="imagebot_127" cx="1294.9365" cy="323.69412" r="53.36206"/>
   <circle fill="#92959a" stroke-width="2.04004" stroke-miterlimit="4" stroke-dashoffset="0" stroke-opacity="0.99608" r="24.56328" cy="323.69412" cx="1294.9365" id="imagebot_126"/>
   <g fill="#808080" filter="url(#imagebot_116)" id="imagebot_115" transform="translate(219.60017,14.259152)">
    <g fill="#808080" id="imagebot_123">
     <path clip-rule="nonzero" fill="#808080" fill-rule="evenodd" stroke-width="1px" stroke-miterlimit="4" stroke-dashoffset="0" id="imagebot_125" d="M1025.2367,333.96349L1123.1526,279.50761L1117.9165,273.74785L1021.0478,328.20373L1025.2367,333.96349z"/>
     <path clip-rule="nonzero" fill="#808080" fill-rule="evenodd" stroke-width="1px" stroke-miterlimit="4" stroke-dashoffset="0" d="M1035.709,348.62469L1133.6249,294.16881L1128.3888,288.40905L1031.5201,342.86493L1035.709,348.62469z" id="imagebot_124"/>
    </g>
    <g fill="#808080" id="imagebot_120" transform="matrix(0.53566158,0.84443275,-0.84443275,0.53566158,763.02453,-765.24236)">
     <path clip-rule="nonzero" fill="#808080" fill-rule="evenodd" stroke-width="1px" stroke-miterlimit="4" stroke-dashoffset="0" d="M1025.2367,333.96349L1123.1526,279.50761L1117.9165,273.74785L1021.0478,328.20373L1025.2367,333.96349z" id="imagebot_122"/>
     <path clip-rule="nonzero" fill="#808080" fill-rule="evenodd" stroke-width="1px" stroke-miterlimit="4" stroke-dashoffset="0" id="imagebot_121" d="M1035.709,348.62469L1133.6249,294.16881L1128.3888,288.40905L1031.5201,342.86493L1035.709,348.62469z"/>
    </g>
    <g fill="#808080" transform="matrix(-0.50118862,0.86533806,-0.86533806,-0.50118862,1886.4156,-464.86216)" id="imagebot_117">
     <path clip-rule="nonzero" fill="#808080" fill-rule="evenodd" stroke-width="1px" stroke-miterlimit="4" stroke-dashoffset="0" id="imagebot_119" d="M1025.2367,333.96349L1123.1526,279.50761L1117.9165,273.74785L1021.0478,328.20373L1025.2367,333.96349z"/>
     <path clip-rule="nonzero" fill="#808080" fill-rule="evenodd" stroke-width="1px" stroke-miterlimit="4" stroke-dashoffset="0" d="M1035.709,348.62469L1133.6249,294.16881L1128.3888,288.40905L1031.5201,342.86493L1035.709,348.62469z" id="imagebot_118"/>
    </g>
   </g>
   <g fill="#898e92" transform="translate(217.60017,12.259152)" id="imagebot_105">
    <g fill="#898e92" id="imagebot_112">
     <path clip-rule="nonzero" fill="#898e92" fill-rule="evenodd" stroke-width="1px" stroke-miterlimit="4" stroke-dashoffset="0" d="M1025.2367,333.96349L1123.1526,279.50761L1117.9165,273.74785L1021.0478,328.20373L1025.2367,333.96349z" id="imagebot_114"/>
     <path clip-rule="nonzero" fill="#898e92" fill-rule="evenodd" stroke-width="1px" stroke-miterlimit="4" stroke-dashoffset="0" id="imagebot_113" d="M1035.709,348.62469L1133.6249,294.16881L1128.3888,288.40905L1031.5201,342.86493L1035.709,348.62469z"/>
    </g>
    <g fill="#898e92" transform="matrix(0.53566158,0.84443275,-0.84443275,0.53566158,763.02453,-765.24236)" id="imagebot_109">
     <path clip-rule="nonzero" fill="#898e92" fill-rule="evenodd" stroke-width="1px" stroke-miterlimit="4" stroke-dashoffset="0" id="imagebot_111" d="M1025.2367,333.96349L1123.1526,279.50761L1117.9165,273.74785L1021.0478,328.20373L1025.2367,333.96349z"/>
     <path clip-rule="nonzero" fill="#898e92" fill-rule="evenodd" stroke-width="1px" stroke-miterlimit="4" stroke-dashoffset="0" d="M1035.709,348.62469L1133.6249,294.16881L1128.3888,288.40905L1031.5201,342.86493L1035.709,348.62469z" id="imagebot_110"/>
    </g>
    <g fill="#898e92" id="imagebot_106" transform="matrix(-0.50118862,0.86533806,-0.86533806,-0.50118862,1886.4156,-464.86216)">
     <path clip-rule="nonzero" fill="#898e92" fill-rule="evenodd" stroke-width="1px" stroke-miterlimit="4" stroke-dashoffset="0" d="M1025.2367,333.96349L1123.1526,279.50761L1117.9165,273.74785L1021.0478,328.20373L1025.2367,333.96349z" id="imagebot_108"/>
     <path clip-rule="nonzero" fill="#898e92" fill-rule="evenodd" stroke-width="1px" stroke-miterlimit="4" stroke-dashoffset="0" id="imagebot_107" d="M1035.709,348.62469L1133.6249,294.16881L1128.3888,288.40905L1031.5201,342.86493L1035.709,348.62469z"/>
    </g>
   </g>
   <g fill="url(#imagebot_86)" id="imagebot_85" transform="translate(217.60017,12.259152)">
    <g fill="url(#imagebot_100)" id="imagebot_99">
     <path clip-rule="nonzero" fill="url(#imagebot_104)" fill-rule="evenodd" stroke-width="1px" stroke-miterlimit="4" stroke-dashoffset="0" id="imagebot_103" d="M1025.2367,333.96349L1123.1526,279.50761L1117.9165,273.74785L1021.0478,328.20373L1025.2367,333.96349z"/>
     <path clip-rule="nonzero" fill="url(#imagebot_102)" fill-rule="evenodd" stroke-width="1px" stroke-miterlimit="4" stroke-dashoffset="0" d="M1035.709,348.62469L1133.6249,294.16881L1128.3888,288.40905L1031.5201,342.86493L1035.709,348.62469z" id="imagebot_101"/>
    </g>
    <g fill="url(#imagebot_94)" id="imagebot_93" transform="matrix(0.53566158,0.84443275,-0.84443275,0.53566158,763.02453,-765.24236)">
     <path clip-rule="nonzero" fill="url(#imagebot_98)" fill-rule="evenodd" stroke-width="1px" stroke-miterlimit="4" stroke-dashoffset="0" d="M1025.2367,333.96349L1123.1526,279.50761L1117.9165,273.74785L1021.0478,328.20373L1025.2367,333.96349z" id="imagebot_97"/>
     <path clip-rule="nonzero" fill="url(#imagebot_96)" fill-rule="evenodd" stroke-width="1px" stroke-miterlimit="4" stroke-dashoffset="0" id="imagebot_95" d="M1035.709,348.62469L1133.6249,294.16881L1128.3888,288.40905L1031.5201,342.86493L1035.709,348.62469z"/>
    </g>
    <g fill="url(#imagebot_88)" transform="matrix(-0.50118862,0.86533806,-0.86533806,-0.50118862,1886.4156,-464.86216)" id="imagebot_87">
     <path clip-rule="nonzero" fill="url(#imagebot_92)" fill-rule="evenodd" stroke-width="1px" stroke-miterlimit="4" stroke-dashoffset="0" id="imagebot_91" d="M1025.2367,333.96349L1123.1526,279.50761L1117.9165,273.74785L1021.0478,328.20373L1025.2367,333.96349z"/>
     <path clip-rule="nonzero" fill="url(#imagebot_90)" fill-rule="evenodd" stroke-width="1px" stroke-miterlimit="4" stroke-dashoffset="0" d="M1035.709,348.62469L1133.6249,294.16881L1128.3888,288.40905L1031.5201,342.86493L1035.709,348.62469z" id="imagebot_89"/>
    </g>
   </g>
   <g opacity="0.862" fill="#4d4d4d" filter="url(#imagebot_81)" transform="translate(218.34714,13.613971)" id="imagebot_80">
    <g fill="#4d4d4d" id="imagebot_82">
     <path fill="#4d4d4d" fill-rule="evenodd" stroke-width="1px" id="imagebot_84" d="M1072.8856,297.8341C1073.5713,295.36178 1067.684,293.05239 1068.6967,291.02712C1068.8528,290.7149 1069.3948,291.02712 1069.7439,291.02712C1070.2053,291.02712 1071.3148,289.75475 1071.3148,289.97989C1071.3148,291.80052 1072.552,291.74072 1073.9328,293.12158C1074.2088,293.39755 1074.2819,294.51788 1074.4564,294.1688C1075.0888,292.90408 1079.5285,289.89783 1079.6926,289.97989C1079.9702,290.11868 1081.603,295.03199 1083.3579,296.78688C1083.8815,297.31049 1085.4523,296.78688 1085.976,297.31049C1086.7614,298.09591 1087.285,299.14314 1088.0704,299.92856C1089.4336,301.29175 1092.1059,299.59002 1093.8302,300.45218C1099.3358,303.20498 1090.6885,305.21925 1090.6885,305.68832C1090.6885,306.65469 1091.3547,309.73459 1090.6885,310.40085C1089.4923,311.59702 1089.5782,310.92446 1089.6413,310.92446C1090.659,310.92446 1090.3018,313.08739 1091.2121,313.54253C1093.3734,314.62317 1096.4482,313.19678 1096.4482,316.68422C1096.4482,317.03329 1096.7605,317.57533 1096.4482,317.73145C1095.4569,318.22711 1092.6984,316.76878 1091.2121,318.25506C1090.9503,318.51687 1091.4739,319.5641 1091.2121,319.8259C1089.4636,321.57444 1091.9507,324.43095 1089.6413,325.58566C1088.2246,326.29399 1085.8808,320.44468 1084.4051,321.92036C1083.0235,323.30201 1079.3485,322.27943 1080.7398,325.06205C1080.8692,325.32077 1082.3778,329.77457 1081.787,329.77457C1079.1078,329.77457 1078.9536,327.88066 1078.1217,326.63289C1077.8156,326.17365 1076.7977,326.60299 1076.5509,326.10927C1076.3948,325.79705 1076.7977,325.30888 1076.5509,325.06205C1076.3041,324.81521 1075.7941,325.25568 1075.5037,325.06205C1075.0444,324.75589 1075.4737,323.73804 1074.9801,323.4912C1070.5566,321.27946 1073.7811,332.24092 1070.7911,329.25096C1068.431,326.89083 1071.1371,321.74274 1070.2675,320.87313C1068.0996,318.7052 1068.4525,322.82788 1068.1731,322.96759C1066.818,323.64515 1061.757,324.92931 1061.3661,324.53843C1060.3057,323.47809 1062.7355,320.75234 1062.9369,320.34952C1063.0766,320.07026 1064.8918,320.62878 1065.0314,320.34952C1065.1875,320.03729 1064.6823,319.30229 1065.0314,319.30229C1065.3805,319.30229 1065.0314,320.69859 1065.0314,320.34952C1065.0314,318.68491 1065.0314,319.27564 1065.0314,318.25506C1065.0314,317.87663 1062.5169,316.26417 1061.8897,315.63699C1061.6621,315.40944 1058.748,315.7872 1058.748,315.63699C1058.748,314.7213 1058.5068,309.59486 1058.748,309.35362C1059.7326,308.36902 1059.342,307.11844 1059.7952,306.21193C1059.9514,305.89971 1060.6864,306.52416 1060.8425,306.21193C1061.6288,304.63936 1062.2383,302.54663 1062.4133,302.54663C1062.7624,302.54663 1063.2137,302.79347 1063.4605,302.54663C1063.8096,302.19756 1063.1115,300.80125 1063.4605,300.45218C1063.9074,300.00528 1065.555,299.38166 1065.555,299.40495C1065.555,300.03748 1065.22,297.64548 1065.555,297.31049C1066.755,296.1105 1065.466,298.53651 1066.6022,296.26326C1066.8182,295.83129 1071.6527,297.01215 1072.8856,297.8341z"/>
     <path fill="#4d4d4d" fill-rule="evenodd" stroke-width="1px" id="imagebot_83" d="M1062.9369,302.54663C1060.8788,301.90594 1056.8687,297.61897 1056.1299,298.35772C1054.3091,300.17856 1057.9745,304.14136 1058.2244,304.64109C1058.4762,305.14463 1057.6449,304.0616 1059.2716,305.68832C1059.5476,305.96429 1060.5948,305.93596 1060.3189,306.21193C1059.3007,307.23006 1061.4647,304.01884 1062.9369,302.54663z"/>
    </g>
   </g>
   <path fill="#5b5e63" stroke-width="2.04004" stroke-miterlimit="4" stroke-dashoffset="0" stroke-opacity="0.99608" id="imagebot_79" d="M1310.5984,323.69412A15.66184,15.66184 0 0 1 1294.9365,339.35596A15.66184,15.66184 0 0 1 1279.2747,323.69412A15.66184,15.66184 0 0 1 1294.9365,308.03229A15.66184,15.66184 0 0 1 1310.5984,323.69412z"/>
   <circle fill="#9fa2a7" stroke-width="2.04004" stroke-miterlimit="4" stroke-dashoffset="0" stroke-opacity="0.99608" r="10.6875" cy="323.69412" cx="1294.9365" id="imagebot_78"/>
   <ellipse opacity="0.576" fill="url(#imagebot_77)" stroke-width="2.04004" stroke-miterlimit="4" stroke-dashoffset="0" stroke-opacity="0.99608" ry="10.6875" rx="12.25834" id="imagebot_76" cx="1294.9365" cy="323.69412"/>
   <path opacity="0.101" fill="url(#imagebot_74)" fill-rule="nonzero" stroke-width="0.7" stroke-linecap="round" stroke-linejoin="round" stroke-miterlimit="4" stroke-dashoffset="0" filter="url(#imagebot_75)" id="imagebot_73" d="M1296.2074,240.23641C1250.3715,240.23572 1213.2137,277.39269 1213.2133,323.2286C1213.2126,369.06528 1250.3707,406.22343 1296.2074,406.22274C1342.0433,406.22238 1379.2003,369.06453 1379.1996,323.2286C1379.1992,277.39343 1342.0426,240.23677 1296.2074,240.23641zM1297.2543,249.13875C1338.3179,249.1386 1374.225,281.37948 1374.2259,322.44309C1374.226,363.50746 1338.3187,397.84398 1297.2543,397.84383C1256.1899,397.84404 1218.7116,362.46027 1218.7118,321.39586C1218.7127,280.33221 1256.1906,249.13854 1297.2543,249.13875z"/>
   <ellipse opacity="0.377" fill="none" fill-rule="nonzero" stroke="url(#imagebot_72)" stroke-width="0.538" stroke-linecap="round" stroke-linejoin="round" stroke-miterlimit="4" stroke-dashoffset="0" filter="url(#imagebot_71)" transform="matrix(-1,0,0,1,228.4498,13.090356)" ry="74.542" rx="72.70609" cy="311.3822" cx="-1076.5509" id="imagebot_70"/>
  </g>
  <path transform="matrix(1 0 0 1 35.0181 -548.038)" label="Layer 1" opacity="0.315" fill="#00ffff" stroke="#000000" stroke-width="4.428" stroke-miterlimit="4" id="imagebot_68" d="M656.17898,610.05622C647.60892,610.05622 646.80547,616.21594 646.80547,616.21594L639.03884,719.59243C640.91354,726.55563 646.26984,725.75213 646.26984,725.75213L780.44497,721.19933C810.17239,716.64643 814.18962,703.25573 814.18962,703.25573C824.63439,675.67083 820.34936,627.9998 820.34936,627.9998C817.13558,615.68032 799.19199,615.68032 799.19199,615.68032L656.17898,610.05622z"/>
  <path transform="matrix(1 0 0 1 35.0181 -548.038)" label="Layer 1" fill="none" stroke="#333333" stroke-width="4.428" stroke-miterlimit="4" d="M656.17898,612.05622C647.60892,612.05622 646.80547,618.21594 646.80547,618.21594L639.03884,721.59243C640.91354,728.55563 646.26984,727.75213 646.26984,727.75213L780.44497,723.19933C810.17239,718.64643 814.18962,705.25573 814.18962,705.25573C824.63439,677.67083 820.34936,629.9998 820.34936,629.9998C817.13558,617.68032 799.19199,617.68032 799.19199,617.68032L656.17898,612.05622z" id="imagebot_67"/>
  <path transform="matrix(1 0 0 1 35.0181 -548.038)" label="Layer 1" clip-rule="nonzero" opacity="0.529" fill="url(#imagebot_65)" fill-rule="evenodd" stroke-width="1px" stroke-miterlimit="4" stroke-dashoffset="0" filter="url(#imagebot_66)" d="M884.21311,738.13775C884.21311,738.13775 1256.898,723.52265 1269.0772,738.13775C1281.2565,752.75284 1271.5131,757.62454 1271.5131,757.62454L884.21311,764.93208L884.21311,738.13775z" id="imagebot_64"/>
  <path transform="matrix(1 0 0 1 35.0181 -548.038)" label="Layer 1" clip-rule="nonzero" opacity="0.275" fill="url(#imagebot_63)" fill-rule="evenodd" stroke-width="1px" stroke-miterlimit="4" stroke-dashoffset="0" filter="url(#imagebot_48)" d="M881.68832,825.45352C947.68261,777.64958 1015.3501,748.28054 1113.0939,803.53088C1092.1085,786.153 1092.7211,769.25555 1064.3816,762.90582C1032.7126,755.81007 993.73938,756.84075 959.69411,763.70264C911.75862,773.36411 906.82879,794.53226 881.68832,825.45352z" id="imagebot_62"/>
  <path transform="matrix(1 0 0 1 35.0181 -548.038)" label="Layer 1" clip-rule="nonzero" opacity="0.591" fill="url(#imagebot_61)" fill-rule="evenodd" stroke-width="1px" stroke-miterlimit="4" stroke-dashoffset="0" filter="url(#imagebot_54)" d="M1118.2927,818.21589C1101.5558,803.58175 1087.1318,799.31162 1066.8866,786.50858C1040.1402,769.59426 950.62038,784.34627 905.49569,815.77687C891.61108,825.44789 866.04456,858.4598 879.19494,859.67931C892.34531,860.89882 892.20117,864.55736 902.96057,846.26467C913.71997,827.97199 917.45058,835.28906 929.40549,825.53297C1004.5297,785.549 1072.9591,800.01796 1118.2927,818.21589z" id="imagebot_60"/>
  <path label="Layer 1" clip-rule="nonzero" opacity="0.246" fill="url(#imagebot_58)" fill-rule="evenodd" stroke-width="1px" stroke-miterlimit="4" stroke-dashoffset="0" filter="url(#imagebot_59)" d="M350.38643,877.16903L364.16567,916.53829L852.34451,906.69597L864.15529,867.32671L350.38643,877.16903z" id="imagebot_57" transform="matrix(1.00197 0 0 0.900615 33.8189 -462.346)"/>
  <path transform="matrix(1 0 0 1 35.0181 -548.038)" label="Layer 1" fill="#4d4d4d" fill-rule="evenodd" stroke-width="1px" d="M69.11764,759.71518C61.34596,773.26988 69.59925,767.54973 73.52941,771.47989C74.22265,772.17313 72.83617,773.72782 73.52941,774.42107C77.51191,778.40357 81.72801,778.6121 83.82353,774.42107C84.11764,773.83283 87.94117,775.0093 88.23529,774.42107C90.32888,770.23388 89.39201,764.12695 89.70588,764.12695C90.72743,764.12695 89.25685,762.65636 85.29412,762.65636C84.76618,762.65636 78.54864,763.87129 77.94117,762.65636C77.12314,761.0203 77.97727,759.71518 69.11764,759.71518z" id="imagebot_56"/>
  <path transform="matrix(1 0 0 1 35.0181 -548.038)" label="Layer 1" fill="#414649" fill-rule="evenodd" stroke-width="1px" d="M47.05882,771.47989C38.37128,776.39568 36.56945,780.40104 30.88235,783.24459C24.04825,786.66164 53.04168,802.16123 60.29412,787.65636C60.41855,787.40749 73.29199,788.41467 70.58824,780.30342C68.56364,774.22963 55.13624,791.67342 47.05882,771.47989z" id="imagebot_55"/>
  <path label="Layer 1" clip-rule="nonzero" opacity="0.518" fill="url(#imagebot_53)" fill-rule="evenodd" stroke-width="1px" stroke-miterlimit="4" stroke-dashoffset="0" filter="url(#imagebot_54)" id="imagebot_52" d="M1120.2484,830.49152C1103.5115,815.85738 1087.1318,799.31162 1066.8866,786.50858C1040.1402,769.59426 951.76088,779.95972 905.49569,815.77687C886.63287,830.37991 854.31025,883.01106 867.46063,884.23057C890.91416,866.45031 912.78464,838.58792 929.40549,825.53297C1004.5297,785.549 1074.9148,812.29359 1120.2484,830.49152z" transform="matrix(1.00652 0 0 0.801777 -760.99 -394.268)"/>
  <path transform="matrix(1 0 0 1 35.0181 -548.038)" label="Layer 1" clip-rule="nonzero" opacity="0.388" fill="url(#imagebot_50)" fill-rule="evenodd" stroke-width="1px" stroke-miterlimit="4" stroke-dashoffset="0" filter="url(#imagebot_51)" d="M34.09585,884.16166C20.40703,845.34571 15.11449,814.42637 39.38149,811.30752L100.92669,802.51993C85.01714,810.21802 57.19646,815.55837 42.08893,825.66252C36.01645,839.48202 36.69096,864.54653 34.09585,884.16166z" id="imagebot_49"/>
  <path transform="matrix(1 0 0 1 35.0181 -548.038)" label="Layer 1" clip-rule="nonzero" opacity="0.275" fill="url(#imagebot_47)" fill-rule="evenodd" stroke-width="1px" stroke-miterlimit="4" stroke-dashoffset="0" filter="url(#imagebot_48)" id="imagebot_46" d="M87.34822,818.77839C153.34251,770.97445 236.5853,748.28054 334.3291,803.53088C313.3437,786.153 298.381,762.58042 270.0415,756.23069C238.3725,749.13494 199.39928,750.16562 165.35401,757.02751C117.41852,766.68898 112.48869,787.85713 87.34822,818.77839z"/>
  <path transform="matrix(1 0 0 1 35.0181 -548.038)" label="Layer 1" clip-rule="nonzero" opacity="0.315" fill="url(#imagebot_44)" fill-rule="evenodd" stroke-width="1px" stroke-miterlimit="4" stroke-dashoffset="0" filter="url(#imagebot_45)" d="M342.65652,709.70573L338.20644,760.8817C277.0556,733.62121 168.76657,744.02293 102.35195,743.08136C102.35195,743.08136 261.77628,720.28583 342.65652,709.70573z" id="imagebot_43"/>
  <path transform="matrix(1 0 0 1 35.0181 -548.038)" label="Layer 1" clip-rule="nonzero" opacity="0.446" fill="url(#imagebot_42)" fill-rule="evenodd" stroke-width="1px" stroke-miterlimit="4" stroke-dashoffset="0" d="M289.2555,707.48068L35.60068,745.3064C123.70824,718.474 207.02526,710.80378 289.2555,707.48068z" id="imagebot_41"/>
  <path transform="matrix(1 0 0 1 35.0181 -548.038)" label="Layer 1" clip-rule="nonzero" opacity="0.326" fill="url(#imagebot_39)" fill-rule="evenodd" stroke-width="1px" stroke-miterlimit="4" stroke-dashoffset="0" filter="url(#imagebot_40)" d="M310.23256,708.89047L327.64358,704.14201L425.77837,634.49797L343.47177,710.47329L310.23256,708.89047z" id="imagebot_38"/>
  <g label="Layer 1" id="imagebot_35" transform="matrix(1.03138 0.0145826 -0.0150531 0.999148 -55.5652 93.2701)">
   <path clip-rule="nonzero" fill="#898e92" fill-rule="evenodd" stroke="#4d4d4d" stroke-width="1px" stroke-miterlimit="4" stroke-dashoffset="0" id="imagebot_37" d="M430.45719,305.22588C426.13863,288.00047 430.01333,296.6263 433.69246,291.0262L517.58188,291.0262L520.74752,298.9403L571.39773,298.9403L572.98055,292.60902L745.50785,291.0262L745.50785,294.19184L810.40343,294.19184L816.73471,284.69492L913.28668,286.27774L930.69769,292.60902L930.69769,303.68875L430.45719,305.22588z"/>
   <path clip-rule="nonzero" fill="#4d4d4d" fill-rule="evenodd" stroke-width="1px" stroke-miterlimit="4" stroke-dashoffset="0" id="imagebot_36" d="M930.69769,295.77466L577.72901,294.19184L930.69769,303.68875L930.69769,295.77466z"/>
  </g>
  <path transform="matrix(1 0 0 1 35.0181 -548.038)" label="Layer 1" opacity="0.594" fill="#ffffff" fill-rule="evenodd" stroke-width="1px" d="M751.30096,657.88257C735.45451,656.95174 720.19984,665.43972 707.90818,671.58555C697.22504,676.92713 686.99852,671.94074 675.93456,683.0047C672.81687,686.1224 658.82409,697.86786 659.94775,698.99152C661.03218,700.07595 682.23205,699.54551 682.78605,698.99152C694.81104,686.96653 731.53724,657.88257 751.30096,657.88257z" id="imagebot_34"/>
  <path transform="matrix(1 0 0 1 35.0181 -548.038)" label="Layer 1" opacity="0.638" fill="#ffffff" fill-rule="evenodd" stroke-width="1px" d="M569.99782,667.44147C544.52923,674.19509 516.08834,678.2261 499.85525,692.1449C494.99836,696.30935 490.1256,704.57657 486.9508,707.29876C479.92357,713.32414 474.82522,711.61137 468.9956,721.33111" id="imagebot_33"/>
  <path transform="matrix(1 0 0 1 35.0181 -548.038)" label="Layer 1" clip-rule="nonzero" opacity="0.522" fill="#949494" fill-rule="evenodd" stroke-width="1px" stroke-miterlimit="4" stroke-dashoffset="0" d="M83.05009,754.8322C52.6328,754.43659 35.25349,766.96874 26.47001,790.59783L79.41142,792.06853L111.76494,758.24431C101.10607,756.06616 91.56693,754.94298 83.05009,754.8322zM81.40751,762.74236C91.13268,762.74036 99.99931,765.59783 99.99931,765.59783L73.52861,781.77361L36.76494,787.65642C43.15585,775.78158 47.23431,779.25367 64.70634,767.06853C69.42883,763.77503 75.57241,762.74356 81.40751,762.74236z" id="imagebot_32"/>
  <path transform="matrix(1 0 0 1 35.0181 -548.038)" label="Layer 1" clip-rule="nonzero" opacity="0.522" fill="url(#imagebot_31)" fill-rule="evenodd" stroke-width="1px" stroke-miterlimit="4" stroke-dashoffset="0" id="imagebot_30" d="M83.05009,754.8322C52.6328,754.43659 35.25349,766.96874 26.47001,790.59783L79.41142,792.06853L111.76494,758.24431C101.10607,756.06616 91.56693,754.94298 83.05009,754.8322zM81.40751,762.74236C91.13268,762.74036 99.99931,765.59783 99.99931,765.59783L73.52861,781.77361L36.76494,787.65642C43.15585,775.78158 47.23431,779.25367 64.70634,767.06853C69.42883,763.77503 75.57241,762.74356 81.40751,762.74236z"/>
  <path transform="matrix(1 0 0 1 35.0181 -548.038)" label="Layer 1" fill="none" fill-rule="evenodd" stroke="#808080" stroke-width="1px" filter="url(#imagebot_29)" d="M27.41177,759.71518C15.94654,758.09558 32.68722,752.10544 31.82353,753.83283C30.72742,756.02505 27.41177,757.2642 27.41177,759.71518C27.41177,763.90342 35.5696,769.60685 31.82353,771.47989C27.78927,773.49701 29.97543,773.87452 25.94118,775.89165C24.26483,776.72983 28.13475,780.67722 25.94118,781.774C17.75099,785.86909 19.8073,793.66447 14.17647,796.47989" id="imagebot_28"/>
  <g label="Layer 1" id="imagebot_15" transform="matrix(1 0 0 1 -32.6696 115.301)">
   <path clip-rule="nonzero" fill="url(#imagebot_26)" fill-rule="evenodd" stroke-width="1px" stroke-miterlimit="4" stroke-dashoffset="0" filter="url(#imagebot_27)" id="imagebot_25" d="M1338.5243,127.57904L1347.8313,105.58054L1352.9079,103.88835L1356.2923,137.7322L1338.5243,127.57904z"/>
   <path clip-rule="nonzero" fill="url(#imagebot_23)" fill-rule="evenodd" stroke-width="1px" stroke-miterlimit="4" stroke-dashoffset="0" filter="url(#imagebot_24)" id="imagebot_22" d="M1337.6782,129.27123L1335.1399,157.19241L1355.4462,158.03851L1355.4462,133.50172L1337.6782,129.27123z"/>
   <path clip-rule="nonzero" fill="url(#imagebot_20)" fill-rule="evenodd" stroke-width="1px" stroke-miterlimit="4" stroke-dashoffset="0" filter="url(#imagebot_21)" id="imagebot_19" d="M1331.7555,157.19241L1331.7555,174.11434L1352.9079,170.72995L1352.9079,154.65412L1331.7555,157.19241z"/>
   <path clip-rule="nonzero" fill="url(#imagebot_17)" fill-rule="evenodd" stroke-width="1px" stroke-miterlimit="4" stroke-dashoffset="0" filter="url(#imagebot_18)" id="imagebot_16" d="M1333.4477,173.26824L1330.0633,188.49797L1352.0618,190.19016L1354.6001,170.72995L1333.4477,173.26824z"/>
  </g>
  <path transform="matrix(1 0 0 1 35.0181 -548.038)" label="Layer 1" clip-rule="nonzero" opacity="0.145" fill="url(#imagebot_13)" fill-rule="evenodd" stroke-width="1px" stroke-miterlimit="4" stroke-dashoffset="0" filter="url(#imagebot_14)" d="M1145.532,880.38671L1157.1913,932.85382L1265.0404,918.27962L1273.7849,865.81251C1262.3424,837.51873 1222.7897,879.79448 1145.532,880.38671z" id="imagebot_12"/>
  <path transform="matrix(1 0 0 1 35.0181 -548.038)" label="Layer 1" opacity="0.438" fill="#ffffff" fill-rule="evenodd" stroke-width="1px" d="M69.95615,760.87828C110.15657,740.14123 125.10433,782.93756 69.95615,760.87828z" id="imagebot_11"/>
  <path transform="matrix(1 0 0 1 35.0181 -548.038)" label="Layer 1" clip-rule="nonzero" fill="none" fill-rule="evenodd" stroke="url(#imagebot_10)" stroke-width="3" stroke-miterlimit="4" stroke-dashoffset="0" filter="url(#imagebot_9)" d="M-7.06879,806.13264C-20.02824,809.66703 -25.9189,803.77637 -21.20638,830.87341C-16.49385,857.97045 -20.02824,865.03925 -18.85011,881.5331C-17.67198,898.02695 -13.53182,914.12725 -11.78132,926.30211C-8.24692,950.88404 74.22232,948.65464 74.22232,947.50849" id="imagebot_8"/>
  <path transform="matrix(1 0 0 1 35.0181 -548.038)" label="Layer 1" opacity="0.627" fill="#ffffff" fill-rule="evenodd" stroke-width="1px" d="M770.43725,653.35989C767.7161,654.40989 752.93771,664.50735 752.30078,666.41815C752.14784,666.87697 752.64276,667.52709 752.30078,667.86907C751.95879,668.21106 751.26458,667.62024 750.84986,667.86907C748.49007,669.28495 746.96141,674.16605 745.04619,675.12366C741.32862,676.98244 737.60425,682.10919 734.16431,683.82916C733.93698,683.94283 732.11374,687.33065 731.26247,688.18192C730.49777,688.94662 733.39961,687.4957 734.16431,686.731C735.01927,685.87604 735.25923,683.28844 736.34068,683.82916C736.82432,684.07098 735.0745,685.28008 735.61523,685.28008C739.14567,685.28008 744.32073,676.08801 744.32073,673.67274C744.32073,673.4519 744.57331,667.61649 745.04619,667.14361C745.40892,666.78088 746.78729,667.4338 747.22257,667.14361C748.68672,666.16751 753.76265,663.50536 754.47715,662.79086C756.07646,661.19155 755.81521,661.56566 756.65353,659.88902C756.8041,659.58789 758.57668,660.14225 758.82991,659.88902C759.59232,659.12661 762.14133,656.98719 762.4572,656.98719C763.34679,656.98719 770.38921,657.22738 770.43725,656.98719C770.67437,655.80157 770.43725,654.56899 770.43725,653.35989z" id="imagebot_7"/>
  <path transform="matrix(1 0 0 1 35.0181 -548.038)" label="Layer 1" opacity="0.652" fill="#ffffff" fill-rule="evenodd" stroke-width="1px" d="M598.50351,663.51632C585.84904,670.66827 572.15106,678.01666 564.40694,689.63284" id="imagebot_6"/>
  <path transform="matrix(1 0 0 1 35.0181 -548.038)" label="Layer 1" clip-rule="nonzero" fill="none" fill-rule="evenodd" stroke="#000000" stroke-width="2" stroke-miterlimit="4" stroke-dashoffset="0" filter="url(#imagebot_5)" d="M878.01243,727.77124L853.13955,941.67795" id="imagebot_4"/>
  <title>Layer 1</title>
 </g>
</svg>